<svg xmlns="http://www.w3.org/2000/svg" width="161" height="60" viewBox="0 -5 161 60"><path fill="#2C396B" d="M10.9 27.9c-.1.1-.2.1-.2.2-.2.5-.5 1.1-.7 1.6v.3c0 .1.1.1.1.2.7-.4 1.1-1.5.8-2.3zm111-6c-.2.4-.5.8-.7 1.2-.1.3-.4.4-.5.7-.1.3-.3.6-.4.9-.9 1.7-1.8 3.4-2.8 5 0 .1-.1.1-.2.2l-.3.3-1.1 1.1c-.2.1-.3.3-.5.5-.3.3-.6.6-.9 1-.1.1-.3.2-.6.3-.3 0-.7.1-1 0-.1-.1-.3-.1-.4-.1-.5.1-.9-.1-1.3-.4-.6-.5-1-1.1-1.1-1.8-.2-.9-.3-1.7-.2-2.6v-.6c0-.9.1-1.7.1-2.5 0-.4 0-.8.1-1.2 0-.3 0-.6.1-.8v-.3c-.1 0-.2.1-.2.1-.2.2-.3.5-.5.8l-.1.1c-.4.4-.7.9-1 1.3-.1.2-.3.4-.5.7-.1.1-.2.3-.4.4-.3.4-.7.7-1.1 1.1-.3.3-.8.4-1.2.7 0 0-.1.1-.2.1-.3 0-.7.1-1 .1h-.3c-.2-.1-.5-.1-.9-.1-.3 0-.6-.1-.9-.3-.3-.2-.7-.4-.8-.7 0-.1-.1-.2-.2-.3-.4-.6-.7-1.3-.9-2-.2-.7-.2-1.5-.4-2.2v-.4-1.5c-.1.2-.2.5-.3.7 0 .1-.2.3-.2.5-.3.7-.6 1.4-.8 2.2h-.1c-.2.4-.4.7-.7 1.1-.3.6-1 1-1.6 1.4-.3.3-.7.5-1.1.7l-.2.1c-.4.1-.9.1-1.2.2h-.8c-.5-.2-1-.3-1.4-.5-.7-.3-1.1-.8-1.4-1.4-.3-.7-.4-1.3-.5-2.1-.1-.7-.1-1.4-.1-2.1v-.7c-.3.7-.7 1.5-1.1 2.1-.5.9-.6 2-1.2 2.9-.5.7-.6 1.5-.9 2.2-.1.4-.3.8-.5 1.1-.5.7-.9 1.4-1.2 2.2-.3.7-.7 1.2-1.4 1.7s-1.2 1.2-2.1 1.5c-.1 0-.1.1-.2.1-.9.1-1.8 0-2.6-.3-.6-.2-1.1-.5-1.5-1-.7-.8-1.1-1.8-1.4-2.8-.1-.2-.1-.5-.1-.8-.1-.6-.1-1.2-.2-1.8v-.2-2.9c.2-4.4 1.7-8.5 3.2-12.6.4-1 .7-1.9 1.1-2.8.2-.7.3-1.4.5-2.1-.2-.2-.3-.2-.3-.2-.2.1-.3.1-.3.2-2 1.6-3.5 3.5-5.4 5.2-1.2 1.1-1.9 2.5-2.6 3.9-.9 1.5-1.7 3-2.6 4.5-.1.1-.1.2-.2.3-.3.7-.7 1.3-1 2 0 .1-.1.2-.2.4-.2.3-.4.7-.5 1.1-.1.2-.1.4-.1.7 0 .2-.1.4-.1.6v.5c-.2.1-.6-.1-.9.2 0 .1 0 .2.1.5h-.3c-.2 0-.3 0-.5-.1s-.4-.2-.6-.4c-.3-.1-.6-.5-.8-.9-.2-.6-.3-1.2-.3-1.9 0-1.2.1-2.4.4-3.7.1-.3.2-.7.3-1 .6-1.9 1.2-3.8 1.7-5.7.1-.1.1-.2.1-.3.4-1.1.6-2.1.7-3 0-.3.2-.5 0-.9l-.1.1c-.1.1-.2.3-.3.4-.1.2-.2.4-.5.5-.8.5-1.4 1.9-2 2.6-.7 1-1.3 1.9-1.9 3-.4 1-.8 2.2-1.4 3.2-.4.8-.7 1.6-1.1 2.4-.1.2-.1.4-.1.5 0 .6-.3 1.1-.6 1.6-.1.3-.3.6-.5.9-.1.3-.3.6-.6.8-.2.2-.5.4-.7.7-.2.3-.6.5-.9.7-.2.1-.4.1-.6 0-.1 0-.2-.1-.3-.1-.2 0-.3-.1-.5-.2.1-.2-.1-.3-.3-.3h-.1c-.7 0-1-.6-1-1.1v-1.1-3.1-.4c-.1.2-.2.4-.4.7-1.4 1.8-2.2 4-4.1 5.4-1.5 1.1-3 2.6-5 2.4-.7 0-1.4-.3-2.1-.5 0 0-.1 0-.2-.1-.6-.4-1.1-.8-1.5-1.3-.2-.3-.4-.7-.5-1-.5 1.3-1 2.6-1.3 3.4-.2.5-.4 1-.6 1.4 0 .2-.2.5-.3.7l-.9 1.8c0 .2-.1.3-.2.5-.1.1-.1.2-.2.4-.2.3-.4.5-.6.7-.3.2-.5.6-.8.8-.2.1-.3.2-.4.3-.2.1-.4.2-.7.3-.1.1-.3.2-.5.2-.1 0-.2 0-.3.1-.3.3-.7.4-1.1.2-.3 0-.5 0-.7-.1-.4 0-.7-.2-1.1-.3-1-.6-1.7-1.4-2-2.7l-.3-2.1c-.1-.5-.1-.9-.1-1.4 0-.6 0-1.2.1-1.8.1-.8.2-1.5.3-2.3.1-.3.1-.5.1-.8.1-1 .5-2 .7-2.8.2-.6.3-1.1.4-1.5.1-.1.1-.2.1-.3.1-.6-.1-1.1-.8-1.4l-1.8-.9c-.6-.4-1.1-.7-1.7-1.1-.1 0-.1.1-.2.1-.8 1.1-3.7 2.7-4.7 3.6-.6.4-1.1 1-1.6 1.4-.3.3-.5.6-.6 1.1-.3 1-.3 2.2-1 3.1-.3.5-.4 1.1-.7 1.5-.2.4-.4.8-.9.9-.4.6-1.3.7-1.6 1.5-.4.2-.5.8-1.1.9-.1 0-.1.1-.2.1-.1.2-.3.4-.5.7-.8-.3-1.3-.8-1.8-1.3-.4-.3-.4-.8-.3-1.2.2-1.3.7-2.5 1.6-3.5.7-.7 1.1-1.4 1.2-2.4.1-1.1.4-2.3.6-3.5.1-1.4.1-2.8.2-4.2l.3-6c0-.4.1-.8-.1-1.2-.6.1-1 .4-1.3.8-1.1 1.2-2 2.7-2.6 4.3-.6 1.5-2 3-2.2 4.6-.2 1.5-.4 3-.7 4.4-.1.6-.1 1.2-.2 1.8-.1.8-.3 1.5-.4 2.3.2 1.2 0 2.4-.5 3.6-.2 1.2.1 2.6.1 3.9-.1.4-.1.8-.1 1.2-.2 1.1 0 2.3-.1 3.4v2c0 .3-.1.7-.2 1.1 0-.1 0-.1-.1-.3-.3.4-.4.8-.5 1.1-.1.1-.1.2-.1.2-.5.3-.4.8-.5 1.2 0 .3-.1.6-.5.7-.1.1-.1.2-.2.3-.4.5-.9.5-1.3 0-.2-.2-.5-.5-.7-.8l-.1-.2c0-.7.1-1.3.1-2 0-.9.1-1.8.1-2.7.1-1.2.1-2.5 0-3.8 0-2.2-.1-4.3-.1-6.5-.1-1.2 0-2.5 0-3.7C.6 24.2.6 22.6.6 21v-4.2c0-1.3 0-2.6-.1-3.8-.2-.6-.4-1.2-.5-1.9-.1-.8.1-1.6.2-2.4 0-.3.3-.3.5-.3.3.1.7.1 1 .1.6.1 1 .6 1.4 1.1.2.1.4.4.6.5.5.5 1 .9 1.5 1.3.5.5.8 1.2 1 1.9 0 .2.1.3.1.5h.1c.2-.5.5-1 .8-1.5.7-1.2 1.5-2.3 2.5-3.4.9-.9 2-1.7 3.3-1.9 1.5-.3 3 .6 3.6 2.1.5 1.3.7 2.7.9 4 .1.6 0 1.2 0 1.8s.1 1.2.1 1.8c0 1-.1 2.5-.1 3.5.2-.1.4-.2.5-.3 1.1-.9 3.8-2.4 5.3-3.3-.7-.6-1.2-1.4-1.5-2.3-.1-.3-.1-.6-.1-.9-.1-1 0-1.9.1-2.9.1-.5.4-1.1.6-1.6l.3-.6c.2 0 .3-.2.4-.4.1-.4.4-.6.7-.9.1-.2.2-.3.2-.4.2-.2.4-.4.7-.5.5-.1 1.1-.1 1.6 0 .5 0 .9.2 1.3.3.2 0 .4.1.6.3.1.2.3.3.4.4.2.1.4.3.5.5.1.2.1.4.1.6v.5c0 .2 0 .4-.1.6 0 .2-.1.4-.1.6s-.1.4-.2.7-.3.6-.4.9-.3.6-.6 1c-.2.6-.6 1.1-1.2 1.6l-.3.3c-.1.1-.1.2 0 .4.5.8 1.1 1.5 1.9 1.9.6.3 1.1.5 1.7.8.5.2 1 .5 1.5.8.3.2.7.5.9.9.2.3.4.6.3 1-.1 0 0 .1 0 .2.1.4.1 1 0 1.4v.1c.1.4-.2.8-.2 1.2-.1.2-.3.6-.4.9 0 .3-.1.7-.2 1-.1.8-.3 1.5-.4 2.2-.2.8-.2 1.7-.3 2.5v1.1c0 .4.2.8.3 1.1.1.7.1 1.2.4 1.8.3.6.9 1.4 1.6 1.1.3-.2.5-.4.7-.7.1-.1.1-.2.2-.3.2-.4.5-.9.8-1.3 0 0 .1-.2.1-.3.4-.7.7-1.5 1.1-2.2 0-.1 0-.2.1-.3.2-.7.5-1.4.8-2.1.1-.5.4-.9.5-1.4.1-.4.2-.7.4-1.1l.6-1.8c0-1.1 0-2.1.1-3.2.1-.8.2-1.6.2-2.3 0-.2.1-.3.1-.5.2-.8.3-1.5.5-2.3.2-1 .6-1.9 1-2.9.1-.1.1-.3.2-.4.3-.3.4-.6.6-1l.1-.1c.2-.7.7-1.2 1.2-1.7.1-.1.2-.2.3-.2.8-.4 1.6-.8 2.5-.9.5-.1 1-.2 1.5-.1.3 0 .6 0 .8.1h.3c3.1.1 1.7 5.7.1 7-.2.1-.5.3-.7.5 0 .1-.1.1-.2.1-.2.1-.5.3-.8.4-.6.2-1.1.4-1.6.5-.9.1-.8.1-1 .8 0 .2-.1.4-.1.6.1 2.4-1.3 6.3.1 8.4.2.3.6.6 1 .7.2.1.4.1.6.1.4-.1.9-.3 1.2-.6.6-.4 1.1-.8 1.6-1.1l.6-.6c.6-.8 1.2-1.5 1.6-2.3.1-.2.2-.3.3-.5.8-.9 1.3-2 1.9-2.9.1-.1.2-.3.2-.4.1-.2.2-.4.3-.5.2-1.1.4-2.2.6-3.4.2-1.1.2-2.3.5-3.5.2-1.4.4-2.7.7-4V5.9c0-.2 0-.3.2-.3h.9c.3 0 .6.1.9.4.1.1.3.2.4.3.2.1.2.2.2.4v.9c0 .3.1.6.3.9.5.6.2 1.4.1 2.1-.2 1-.2 2.1-.3 3.1-.1 1.2-.1 2.3-.2 3.5 0 .1-.1.3-.1.5-.1.2-.1.4-.1.6 0 .3-.1.5-.1.9.1-.1.1-.1.2-.1.2-.5.5-1.1.8-1.5.3-.5.5-1 .8-1.4.6-.9 1.1-1.8 1.6-2.7.2-.3.4-.7.6-1 .2-.3.4-.6.6-1 .1-.1.2-.3.3-.4.4-.5.9-1 1.3-1.4.4-.4.9-.8 1.3-1.1.3-.1.6-.3.8-.5.2-.1.4-.2.6-.2h.2c.4 0 .9-.1 1.3.1l1.2.6c.1 0 .3.1.5.3v.7c0 .2.1.4.1.7.1.6 0 1.1 0 1.7-.1.7-.1 1.3-.2 1.9-.1.5-.1 1-.2 1.4 0 .1 0 .2-.1.2-.1.2-.2.4-.2.7 0 .1-.1.3-.1.5v.3c.1 0 .2-.1.2-.1.6-.9 1.1-1.9 1.7-2.8 0-.1.1-.2.2-.4.7-.8 1.2-1.7 1.9-2.6.1-.1.2-.3.3-.4.5-.8 1.1-1.5 1.7-2.2.6-.5 1.1-1.1 1.7-1.6.5-.5 1-.9 1.6-1.2l.6-.3c.4-.3.7-.4.9-.3.5 0 1.1.1 1.6.1.3 0 .5.1.8.2.3.1.7.3 1.1.4.1 0 .3.1.4.3.3.3.4.8.4 1.2-.1.3-.1.7 0 1.1.1.1 0 .2 0 .3V9c.1.4 0 .7-.1 1.1-.2.5-.1 1-.3 1.5-.1.5-.3 1.1-.6 1.6-.5 1.2-1.2 2.3-1.6 3.5-.4 1.2-.7 2.5-.9 3.8-.4 2.4-1.2 4.9-1.2 7.4v1.4c-.4 1.2-.1 2.8 1.1 3.5.1.1.3.1.4 0 .1-.1.3-.2.4-.3.4-.4.8-.8 1.1-1.3.1-.2.3-.5.4-.7 1.1-1.6 1.7-3.4 2.8-5 1.3-2 2.1-4.2 3.3-6.2.3-.6.7-1.2 1.1-1.7 0-.9.1-1.8.2-2.8.1-.7.1-1.3.2-2s.1-1.3.3-2c.2-.6.4-1.1.6-1.7 0-.2.2-.2.3-.2.4 0 .8 0 1.1.2.2.1.4.2.5.4.1.3.2.4.4.8 0 .1.1.3.1.4 0 .4 0 .9.1 1.3.1.9 0 1.7 0 2.5.1.3.1.6 0 1v.6c0 .5.1.9 0 1.3-.1.6-.1 1.1-.1 1.8v.6l-.1.1c.1.6 0 1.1-.1 1.6.1.1 0 .2 0 .3.1.3.1.6.1.9s-.1.6 0 .9c.1.4.1.9.1 1.4 0 .4.1.7.3 1.1 0 .1.1.1.2.1s.3 0 .5-.1c.4-.1.7-.4 1-.7.2-.2.4-.4.5-.6.8-.9 1.5-1.8 2.1-2.8.2-.5.5-.8.7-1.3.3-.4.5-.9.8-1.4.3-.7.6-1.2.9-2 0-.2.2-.4.3-.7 0-.1.1-.1.1-.2 0-.2.1-.5.2-.7 0-.3.1-.6.2-.9.2-1.1.4-2.1.8-3.1.1-.2.1-.5.1-.7.1-.4.2-.9.3-1.3.1-.3.2-.6.3-.8.1-.3.2-.5.4-.8 0-.2.2-.3.4-.3.3 0 .7 0 1 .1 0 .1.1.3.2.4l-.1.2c-.1.2-.1.4 0 .6l.1.1c.6.6 0 1.4.1 2.1 0 .2.2.5.2.7.1.7-.1 1.4 0 2.1.2 1.7.3 3.4.1 5-.1.9-.3 1.7-.3 2.6 0 .4.1.8.1 1.2 0 .4-.1.8 0 1.1.1.3.2.7.2 1v.2c0 .3.1.6.3.8l.2.2c.1 0 .1-.1.2-.1l.9-.9c.9-1.1 1.7-2.2 2.5-3.3.1-.2.3-.4.4-.6.5-.7 1-1.4 1.4-2.2.1-.2.2-.4.2-.6.1-.6.2-1.3.3-1.9.1-.7.3-1.4.5-2.2.2-.7.4-1.4.5-2.1.1-.6.3-1.1.4-1.7.1-.2.1-.4.2-.7.4-.1.9-.2 1.3 0 .2 0 .4.1.6.2.3 0 .5.2.5.6 0 .3.1.7.2 1 .1.1.1.2.1.3 0 .6.1 1.2.1 1.8 0 .8.3 1.4.3 2.1.1 1-.1 2.1-.2 3.1-.1.5-.1 1.1-.2 1.6s-.4 1-.5 1.5c-.1.7-.1 1.5-.2 2.2-.1.8-.1 1.5-.1 2.3 0 .3.1.8.1 1.1-.1.5-.3.9-.2 1.3.1.4 0 .8 0 1.1 0 .3.1.5.1.9l.2-.2c.2-.4.5-.7.8-1.1.2-.3.4-.7.6-1s.3-.6.5-.9c.1-.2.2-.4.4-.6.1-.3.3-.6.5-.9l1.8-3c.9-1.5 1.7-3.2 2.7-4.6 0-.1 0-.2.1-.3 0-.1.1-.1.1-.2.2-1.3.4-2.5.6-3.8.2-1.1.2-2.3.5-3.5.3-1.3.6-2.6.8-3.9V5.8c0-.2 0-.3.2-.3h.9c.3 0 .6.1.9.4.1.1.3.2.4.3.2.1.2.2.2.4v.9c0 .3.1.6.3.9.5.6.2 1.4.1 2.1-.2 1-.2 2.1-.3 3.1-.1 1.2-.1 2.3-.2 3.5 0 .1 0 .3-.1.5s-.1.4-.1.6v.9c.1-.1.1-.1.2-.1.2-.5.5-1.1.8-1.5.3-.5.5-1 .8-1.4.6-.9 1.1-1.8 1.6-2.7.2-.3.4-.7.6-1 .2-.3.4-.6.6-1 .1-.1.2-.3.3-.4.4-.5.9-1 1.3-1.4.4-.4.9-.8 1.3-1.1.3-.1.6-.3.8-.5.2-.1.4-.2.6-.2h.2c.4 0 .9-.1 1.3.1l1.2.6c.1 0 .3.1.5.3 0 .2 0 .4.1.7 0 .2.1.4.1.7.1.6.1 1.1 0 1.7-.1.7-.1 1.3-.2 1.9-.1.5-.1 1-.2 1.4 0 .1 0 .2-.1.2-.1.2-.2.4-.2.7 0 .1-.1.3-.1.5 0 .1 0 .2-.1.3.1 0 .2-.1.2-.1.6-.9 1.1-1.9 1.7-2.8.1-.1.1-.2.2-.4.7-.8 1.2-1.7 1.9-2.6.1-.1.2-.3.3-.4.5-.8 1.1-1.5 1.7-2.2.6-.5 1.1-1.1 1.7-1.6.5-.5 1-.9 1.6-1.2l.6-.3c.2-.1.4-.2.7-.1.5 0 1.1.1 1.6.1.3 0 .5.1.8.2.3.1.7.3 1.1.4.1 0 .3.1.4.3.3.3.4.8.4 1.2-.1.3-.1.7 0 1.1.1.1 0 .2 0 .3v.3c.1.4 0 .7-.1 1.1-.2.5-.1 1-.3 1.5-.1.5-.3 1.1-.6 1.6-.5 1.2-1.2 2.3-1.6 3.5-.4 1.2-.7 2.5-.9 3.8-.4 2.4-1.2 4.9-1.3 7.4 0 .5.1 1 0 1.4-.4 1.2 0 2.8 1.1 3.5.1.1.3.1.4 0 .1-.1.3-.2.4-.3.4-.4.8-.8 1.1-1.3.1-.2.3-.5.4-.7 1.1-1.6 1.7-3.4 2.8-5 1.3-2 2.1-4.2 3.3-6.2l1.5-2.4c.1-.1.2-.2.2-.4.1-.3.4-.5.7-.7.2 0 .3.1.5.1s.3 0 .5.1c0 .4-.2.8-.4 1.1-.2.3-.3.5-.4.8-.2.5-.7.9-.9 1.3-.6 1.2-1.1 2.3-1.7 3.4-.5.9-.6 2-1.2 2.9-.5.7-.6 1.5-.9 2.2-.1.4-.3.8-.5 1.1-.5.7-.9 1.4-1.2 2.2-.3.7-.7 1.2-1.4 1.7s-1.2 1.2-2.1 1.5c-.1 0-.1.1-.2.1-.9.1-1.8 0-2.6-.3-.6-.2-1.1-.5-1.5-1-.7-.8-1.1-1.8-1.4-2.8-.1-.2-.1-.5-.1-.8-.1-.6-.1-1.2-.2-1.8v-.2-2.9c.2-4.4 1.7-8.5 3.2-12.6.4-1 .7-1.9 1.1-2.8.2-.7.3-1.4.5-2.1h-.9c-.1.1-.2.1-.3.1-2 1.6-3.5 3.5-5.4 5.2-1.2 1.1-1.9 2.5-2.6 3.9-.9 1.5-1.7 3-2.6 4.5-.1.1-.1.2-.2.3-.3.7-.7 1.3-1 2-.1.1-.1.2-.2.4-.2.3-.4.7-.5 1.1-.1.2-.1.4-.1.7-.1.2-.1.4-.1.6v.5c-.2.1-.6-.1-.9.2 0 .1 0 .2.1.5h-.3c-.2 0-.3 0-.5-.1s-.4-.2-.6-.4c-.3-.1-.6-.5-.8-.9-.2-.6-.3-1.2-.3-1.9-.1-1.2.1-2.4.4-3.7 0-.3.2-.7.3-1 .6-1.9 1.2-3.8 1.7-5.7.1-.1.1-.2.1-.3.3-.9.5-1.9.7-2.8 0-.3.2-.5 0-.9l-.1.1c-.1.1-.2.3-.3.4-.1.2-.2.4-.5.5-.8.5-1.4 1.9-2 2.6-.7 1-1.3 1.9-1.9 3-.5 1-.9 2.2-1.4 3.2-.4.8-.7 1.6-1.1 2.4 0 .2-.1.4-.1.5 0 .6-.3 1.1-.6 1.6-.1.3-.3.6-.5.9-.1.3-.3.6-.6.8-.2.2-.5.4-.7.7-.2.3-.6.5-.9.7-.2.1-.4.1-.6 0-.1 0-.2-.1-.3-.1-.2 0-.3-.1-.5-.2-.1-.1-.3-.2-.5-.2h-.1c-.7 0-1-.6-1-1.1v-1.1c.3-.9.3-1.6.3-2.2zm-95.1-9.1c.1-.2.2-.5.4-.7.2-.3.4-.7.6-1.1.1-.1.2-.3.2-.6 0-.6.2-1.3.3-2 0-.1 0-.2-.1-.3-.2-.4-.6-.7-1-.9h-.1l-.1.1c0 .2-.2.3-.3.5-.1.2-.2.4-.2.6 0 .1 0 .2-.1.4-.3.5-.5 1.2-.5 1.9V12.6c0 .4 0 .9.2 1.3 0-.4.5-.8.7-1.1zm21.5-3.3c0-.1 0-.2-.1-.2-.5-.5-1-.8-1.7-.7-.5.1-.9.3-1.1.9-.2.5-.5 1.1-.5 1.7 0 .1-.1.3-.1.5-.2.5-.3 1.1-.4 1.6 0 .4-.1.8-.2 1.2-.1.3-.2.5-.1.8.8-.1 1.5-.3 2.3-.6.5-.2.9-.5 1.2-1 .4-.6.8-1.1 1.1-1.8.1-.1.1-.2.1-.4-.1-.2 0-.4.1-.7 0-.1.1-.3.1-.5-.4-.2-.6-.5-.7-.8zm42.3-5.3c.1 0 .1-.1.2 0 .2.1.5 0 .7 0 .5-.1 1 .1 1.3.5-.1.6-.2 1.2-.4 1.7-.1.1-.3.3-.4.5h-.1c-.3 0-.7.1-1.1-.2-.2-.2-.4-.4-.5-.6-.2-.3-.3-.6-.3-1v-.8c.2 0 .4-.1.6-.1z"/></svg>