<svg xmlns="http://www.w3.org/2000/svg" width="121" height="60" viewBox="0 -5 121 60"><path fill="#2C396B" d="M35.5 30.3c0 5.9-5.2 8.6-10.7 8.6-3.6 0-5.6-1.4-7.7-1.4-1.3 0-2.1 1.4-2.1 1.4h-.6V28h.6c2 5.2 4.1 10.1 9.8 10.1 2.1 0 4.3-1.2 4.3-4.2 0-2.9-3.7-4.3-7-5.9-3.8-1.8-7.5-3.9-7.5-8.8 0-5.2 4.4-8.2 10-8.2 3.6 0 5.3 1.3 7.4 1.3 1.4 0 1.7-1.3 1.7-1.3h.6v9.3h-.6c-1.1-4-4.3-8.6-8.7-8.6-2.1 0-4.1.8-4.1 3.8 0 2.8 2.5 4.2 5.8 5.8 3.8 1.9 8.8 3.4 8.8 9zM24 1.6c-.4 0-.8-.3-.8-.8 0-.4.3-.8.8-.8.4 0 .8.3.8.8 0 .4-.3.8-.8.8zm3.6.1h-.2c-.4 0-.8-.4-.7-.9 0-.4.5-.8.9-.7h.1c.4 0 .8.4.7.9 0 .4-.4.7-.8.7zm-7.1.3c-.4 0-.7-.3-.8-.7-.1-.4.2-.9.6-.9h.1c.4-.1.9.2.9.6.1.4-.2.9-.6.9h-.1c0 .1-.1.1-.1.1zm10.6.4H30.8c-.4-.1-.7-.5-.6-1 .1-.4.5-.7 1-.6h.1c.4.1.7.5.6 1-.1.3-.5.6-.8.6zm-14 .5c-.3 0-.6-.2-.8-.5-.1-.4.1-.9.5-1h.1c.4-.1.9.1 1 .5s-.1.9-.5 1H17.1zm17.3.6c-.1 0-.2 0-.3-.1H34c-.4-.2-.6-.6-.4-1 .2-.4.6-.6 1-.4h.1c.4.2.6.6.4 1.1-.1.2-.4.4-.7.4zm-20.6.8c-.3 0-.6-.2-.7-.4-.2-.4-.1-.9.3-1.1.4-.2.9-.1 1.1.3.2.4.1.9-.3 1.1h-.1s-.1.1-.3.1zm23.8.8c-.1 0-.3 0-.4-.1h-.1c-.4-.2-.5-.7-.3-1.1s.7-.5 1.1-.3h.1c.4.2.5.7.3 1.1-.2.3-.5.4-.7.4zm-26.8 1c-.2 0-.5-.1-.7-.3-.2-.4-.1-.9.2-1.1l.1-.1c.4-.3.9-.2 1.1.2.3.4.2.9-.2 1.1h-.1c-.1.2-.2.2-.4.2zm29.6 1.1c-.2 0-.4-.1-.5-.2h-.1c-.3-.3-.4-.8-.1-1.1.3-.3.8-.4 1.1-.1l.1.1c.3.3.4.8.1 1.1-.1.1-.3.2-.6.2zM8.1 8.4c-.2 0-.4-.1-.6-.2-.3-.4-.3-.9.1-1.2.3-.3.8-.3 1.1 0s.3.8 0 1.1v.1c-.2.1-.4.2-.6.2zM43 9.7c-.2 0-.4-.1-.6-.3l-.1-.1c-.3-.3-.3-.8.1-1.1.3-.3.8-.3 1.1.1v.1c.3.3.3.8 0 1.1-.1.1-.3.2-.5.2zM5.8 11c-.2 0-.3-.1-.5-.2-.4-.3-.4-.8-.1-1.1l.1-.1c.3-.4.8-.4 1.1-.1.4.3.4.8.1 1.1l-.1.1c-.2.2-.4.3-.6.3zm39.3 1.4c-.3 0-.5-.1-.7-.4v-.1c-.2-.4-.2-.9.2-1.1.4-.2.9-.2 1.1.2v.1c.2.4.2.9-.2 1.1-.1.2-.2.2-.4.2zM3.8 14c-.1 0-.3 0-.4-.1-.4-.2-.5-.7-.3-1.1v-.1c.2-.4.7-.5 1.1-.3.4.2.5.7.3 1.1v.1c-.1.2-.4.4-.7.4zm43 1.5c-.3 0-.6-.2-.7-.5v-.1c-.2-.4 0-.9.4-1.1.4-.2.9 0 1.1.4v.1c.2.4 0 .9-.4 1.1-.1.1-.2.1-.4.1zM2.3 17.2c-.1 0-.2 0-.3-.1-.4-.2-.6-.6-.5-1V16c.2-.4.6-.6 1-.5.4.2.6.6.5 1v.1c-.1.4-.4.6-.7.6zm45.8 1.6c-.3 0-.7-.2-.8-.6v-.1c-.1-.4.1-.9.5-1s.9.1 1 .5v.1c.1.4-.1.9-.5 1 0 .1-.1.1-.2.1zM1.3 20.6h-.2c-.4-.1-.7-.5-.6-1v-.1c.1-.4.5-.7 1-.6.4.1.7.5.6 1v.1c-.1.3-.4.6-.8.6zm47.6 1.7c-.4 0-.7-.3-.8-.7v-.1c-.1-.4.2-.8.7-.9.4-.1.8.2.9.7v.1c.1.4-.2.8-.7.9h-.1zM.8 24.1c-.5-.1-.8-.5-.8-.9v-.1c0-.4.4-.8.9-.7.4 0 .8.4.7.9v.1c0 .3-.4.7-.8.7zm48.3 1.8c-.4 0-.8-.4-.8-.8v-.2c0-.4.4-.8.8-.8s.8.4.8.8v.2c0 .4-.3.8-.8.8zM.8 27.6c-.4 0-.8-.3-.8-.7 0-.4.3-.8.7-.9.4 0 .8.3.9.7 0 .4-.3.8-.8.9zm48.1 1.8c-.5-.1-.8-.5-.8-.9v-.1c.1-.4.5-.7.9-.7.4.1.7.5.7.9v.1c-.1.4-.4.7-.8.7zM1.3 31.1c-.4 0-.7-.3-.8-.6v-.1c-.1-.4.2-.9.6-1s.9.2 1 .6v.1c.1.4-.2.9-.6 1h-.2zm46.8 1.7h-.2c-.4-.1-.7-.6-.5-1v-.1c.1-.4.6-.7 1-.5.4.1.7.6.5 1v.1c-.1.3-.5.5-.8.5zM2.3 34.5c-.3 0-.6-.2-.7-.5v-.1c-.2-.4 0-.9.5-1 .4-.2.9 0 1 .5v.1c.2.4 0 .9-.5 1-.1-.1-.2 0-.3 0zm44.5 1.6c-.1 0-.2 0-.3-.1-.4-.2-.6-.7-.4-1.1v-.1c.2-.4.7-.6 1.1-.4.4.2.6.7.4 1.1v.1c-.2.4-.5.5-.8.5zm-43 1.6c-.3 0-.5-.1-.7-.4v-.1c-.2-.4-.1-.9.3-1.1.4-.2.9-.1 1.1.3v.1c.2.4.1.9-.3 1.1-.1 0-.2.1-.4.1zm41.3 1.5c-.2 0-.3 0-.4-.1-.4-.2-.5-.7-.2-1.1v-.1c.2-.4.7-.5 1.1-.2.4.2.5.7.2 1.1v.1c-.2.2-.5.3-.7.3zM5.8 40.6c-.2 0-.5-.1-.6-.3l-.1-.1c-.3-.4-.2-.9.1-1.1.4-.3.9-.2 1.1.1v.1c.3.3.2.9-.1 1.1-.1.1-.2.2-.4.2zM42.9 42c-.2 0-.4-.1-.5-.2-.4-.3-.4-.8-.1-1.2l.1-.1c.3-.3.8-.4 1.1-.1.3.3.4.8.1 1.1l-.1.1c-.2.3-.4.4-.6.4zM8.2 43.2c-.2 0-.4-.1-.6-.2l-.1-.1c-.3-.3-.3-.8 0-1.1s.8-.3 1.1 0l.1.1c.3.2.3.8 0 1.1-.1.1-.3.2-.5.2zm32.1 1.2c-.2 0-.5-.1-.6-.3-.3-.3-.2-.8.1-1.1l.1-.1c.3-.3.8-.2 1.1.1s.2.8-.1 1.1l-.1.1c-.1.2-.3.2-.5.2zm-29.4 1.1c-.2 0-.3-.1-.5-.2h-.1c-.4-.3-.4-.8-.2-1.1.3-.4.8-.5 1.1-.2l.1.1c.4.3.4.8.2 1.1-.1.2-.4.3-.6.3zm26.6 1c-.3 0-.5-.1-.7-.4-.2-.4-.1-.9.3-1.1h.1c.4-.2.9-.1 1.1.3.2.4.1.9-.3 1.1h-.1c-.1 0-.3.1-.4.1zm-23.6.8c-.1 0-.2 0-.4-.1-.4-.2-.6-.7-.4-1.1.2-.4.7-.6 1.1-.4.4.2.6.7.4 1.1-.2.3-.4.5-.7.5zm20.4.8c-.3 0-.6-.2-.7-.5-.2-.4 0-.9.4-1.1h.1c.4-.2.9 0 1 .4.2.4 0 .9-.4 1h-.1c0 .2-.2.2-.3.2zm-17.2.6h-.4c-.4-.1-.6-.6-.5-1s.6-.6 1-.5h.1c.4.1.6.6.5 1 0 .3-.3.5-.7.5zm13.9.5c-.4 0-.7-.2-.8-.6-.1-.4.1-.9.6-1h.1c.4-.1.9.1 1 .6.1.4-.1.9-.6 1H31zm-10.4.4h-.1c-.4-.1-.7-.5-.7-.9.1-.4.5-.7.9-.7.4.1.7.5.7.9-.1.4-.5.7-.8.7zm6.9.2c-.4 0-.7-.3-.8-.7-.1-.4.3-.8.7-.9h.1c.4 0 .8.3.9.7 0 .4-.3.8-.7.9h-.2zm-3.4.2H24c-.4 0-.8-.4-.8-.8s.4-.8.8-.8h.1c.4 0 .8.4.8.8s-.4.8-.8.8zm38.6-28.3c-1.3 0-2-.5-2.7-.5-.5 0-.8.5-.8.5H59v-3.9h.2c.7 1.9 1.5 3.6 3.5 3.6.8 0 1.5-.4 1.5-1.5 0-1-1.3-1.5-2.5-2.1-1.3-.6-2.7-1.4-2.7-3.1 0-1.8 1.6-2.9 3.6-2.9 1.3 0 1.9.5 2.6.5.5 0 .6-.5.6-.5h.2v3.3h-.2c-.4-1.4-1.5-3.1-3.1-3.1-.8 0-1.5.3-1.5 1.4 0 1 .9 1.5 2.1 2.1 1.3.6 3.1 1.2 3.1 3.2.2 2-1.7 3-3.7 3zm41.1-9.7h4.6v.2h-.9v4.2h2.4v-4.2h-.9V12h4.6v.2h-1v8.9h1v.2H109v-.2h.9v-4.5h-2.4v4.5h.9v.2h-4.6v-.2h1v-8.9h-1V12zm2.9 19.6c.2-.6.8-2.5-1.1-2.5h-.5V29h3.7v.2c-1.2 0-1.5 1.4-1.7 1.8l-2.5 7.5h-.3c-.7 0-1-.4-1.2-1l-2-5.7-2.3 6.7h-.3c-.7 0-1-.4-1.2-1l-2.9-8.3h-.8V29h4.9v.2h-1.2l2.2 6.3 1.3-3.8.1-.3-.8-2.2h-.8V29h4.9v.2H103l2.2 6.3 1.5-3.9zm4.1-2.4V29h2.8c.7 0 1.1.1 1.7 1l3.4 5.5h.1v-3.3c0-1.9-.1-3-1.5-3h-.4V29h3.9v.2h-.2c-1.5 0-1.5 1.2-1.5 3v6.2h-.8c-.7 0-1.1-.1-1.7-1l-4-6.3v4.4c0 1.9.1 2.7 1.5 2.7h.3v.2h-3.8v-.2h.2c1.5 0 1.5-.9 1.5-2.7v-4.8l-.2-.4c-.2-.4-.6-1.1-1.3-1.1zM73.9 11.9l3.2 9.3h.6v.2h-4.4v-.2h.9l-1-3H71l-.5 1.4c-.1.2-.2.6-.2.8 0 .7.5.8 1.2.8h.5v.2h-3.5v-.2c1.1 0 1.3-.6 1.7-1.6l2.3-6.6c.2-.5.4-1.1 1.4-1.1zM71.1 18h2.1l-1-3-1.1 3zm12.8-1.1h.6c1.5 0 1.5-1.1 1.5-2.3 0-1.9-.7-2.3-1.6-2.3H84l-.1 4.6zm4.4.6c.5.4.6 1 .6 2.5v.2c0 .6.1.7.3.7.2 0 .4-.6.5-1.3h.2c-.1 1.1-.3 2-1.8 2-.8 0-1.4-.3-1.7-.7-.3-.4-.4-.7-.4-1.8 0-.9-.1-1.2-.3-1.5-.1-.2-.3-.3-.5-.4s-.4-.1-.7-.1h-.7v4.1h.9v.2h-4.5v-.2h.9v-8.9h-.9V12H85c2.4 0 4 .5 4 2.5 0 1.5-1.2 2.1-2.7 2.3v.1c.7 0 1.4.1 2 .6zm6.3.5h2.1l-1-3-1.1 3zm2.9-6.1l3.2 9.3h.6v.2h-4.4v-.2h.9l-1-3h-2.2l-.6 1.4c-.1.2-.2.6-.2.8 0 .7.5.8 1.2.8h.5v.2H92v-.2c1.1 0 1.3-.6 1.7-1.6L96 13c.2-.5.4-1.1 1.5-1.1zM62.9 33.4h-.3v4.8h.4c1.6 0 2-1.1 2-2.4 0-2.1-1.1-2.4-2.1-2.4zm-.1-4.2h-.2v3.9h.3c1.1 0 1.7-1 1.7-2 0-.9-.4-1.9-1.8-1.9zm5 6.4c0 2.1-2 2.7-4.4 2.7h-4.6v-.2h1v-8.9h-1V29h4.7c2.6 0 4 .5 4 2s-1.7 2.1-3 2.1h-.1v.1c1.6 0 3.4.7 3.4 2.4zm6.4-1.8h.6c1.5 0 1.5-1.1 1.5-2.3 0-1.9-.7-2.3-1.6-2.3h-.4l-.1 4.6zm4.4.7c.5.4.6 1 .6 2.5v.2c0 .6.1.7.3.7.2 0 .4-.6.5-1.3h.2c-.1 1.1-.3 2-1.8 2-.8 0-1.4-.3-1.7-.7-.3-.4-.4-.7-.4-1.8 0-.9-.1-1.2-.3-1.5-.1-.2-.3-.3-.5-.4-.2-.1-.4-.1-.7-.1h-.7v4.1h.9v.2h-4.5v-.2h.9v-8.9h-.9V29h4.6c2.4 0 4 .5 4 2.5 0 1.5-1.2 2.1-2.7 2.3v.1c.8-.1 1.6.1 2.2.6zm10.3-.9c0-3.8-.6-4.7-1.6-4.7-1.1 0-1.6.9-1.6 4.7s.6 4.7 1.6 4.7 1.6-.9 1.6-4.7zm-1.7-4.9c3.2 0 4.7 2.5 4.7 4.9s-1.4 5-4.7 5c-3.2 0-4.7-2.6-4.7-5 .1-2.2 1.5-4.9 4.7-4.9z"/></svg>