<svg xmlns="http://www.w3.org/2000/svg" width="105" height="60" viewBox="0 -6.5 105 60"><path fill="#2C396B" d="M.6 46.4c-.1 0-.2 0-.2-.1-.1-.1-.1-.1-.1-.2V37c0-.1 0-.2.1-.2.1-.1.1-.1.2-.1h.7c.2 0 .3.1.4.2l3 5.7 3-5.7c.1-.1.2-.2.3-.2h.7c.1 0 .2 0 .2.1.1.1.1.1.1.2v9.1c0 .1 0 .2-.1.2-.1.1-.1.1-.2.1h-.8c-.1 0-.2 0-.2-.1-.1-.1-.1-.1-.1-.2v-7l-2.4 4.6c-.1.2-.2.3-.4.3h-.5c-.2 0-.3-.1-.4-.3l-2.4-4.6v7c0 .1 0 .2-.1.2-.1.1-.1.1-.2.1H.6zm16.6.2c-1.2 0-2.2-.3-2.8-1-.7-.6-1-1.6-1-2.9v-1.2-1.2c0-1.3.4-2.2 1.1-2.9.7-.7 1.6-1 2.8-1s2.1.3 2.8 1c.7.7 1 1.6 1.1 2.9v2.4c0 1.3-.4 2.3-1 2.9-.9.6-1.8 1-3 1zm0-1.2c.7 0 1.3-.2 1.8-.7.4-.5.7-1.1.7-2.1v-1.1-1.1c0-.9-.3-1.6-.7-2.1-.4-.5-1-.7-1.8-.7-.7 0-1.3.2-1.8.7s-.7 1.2-.7 2.1v2.2c0 .9.3 1.6.7 2.1s1 .7 1.8.7zm8.6 1c-.1 0-.2 0-.2-.1-.1-.1-.1-.1-.1-.2V37c0-.1 0-.2.1-.2.1-.1.1-.1.2-.1h.6c.1 0 .2 0 .2.1l.1.1 4.7 7.2V37c0-.1 0-.2.1-.2.1-.1.1-.1.2-.1h.6c.1 0 .2 0 .2.1.1.1.1.1.1.2v9.1c0 .1 0 .2-.1.2-.1.1-.1.1-.2.1h-.6c-.2 0-.3-.1-.3-.2L26.7 39v7c0 .1 0 .2-.1.2-.1.1-.1.1-.2.1h-.6v.1zm15.2.2c-1.2 0-2.2-.3-2.8-1-.7-.6-1-1.6-1-2.9v-1.2-1.2c0-1.3.4-2.2 1.1-2.9.7-.7 1.6-1 2.8-1s2.1.3 2.8 1 1 1.6 1.1 2.9v2.4c0 1.3-.4 2.3-1 2.9-.9.6-1.8 1-3 1zm0-1.2c.7 0 1.3-.2 1.8-.7.4-.5.7-1.1.7-2.1v-1.1-1.1c0-.9-.3-1.6-.7-2.1s-1-.7-1.8-.7c-.7 0-1.3.2-1.8.7s-.7 1.2-.7 2.1v2.2c0 .9.3 1.6.7 2.1.4.5 1 .7 1.8.7zm11.8 1.2c-1.2 0-2.2-.3-2.8-1-.7-.7-1-1.6-1.1-2.7v-1.3-1.3c0-1.1.4-2 1.1-2.7.7-.7 1.6-1 2.8-1 .8 0 1.5.1 2.1.4s1 .7 1.3 1.1c.3.4.4.8.5 1.2 0 .1 0 .1-.1.2s-.1.1-.2.1h-.8c-.1 0-.1 0-.2-.1 0 0-.1-.1-.1-.2-.1-.4-.4-.8-.8-1.1-.4-.3-.9-.4-1.6-.4-.8 0-1.4.2-1.8.6s-.7 1.1-.7 2v2.4c0 .9.3 1.6.7 2s1.1.6 1.8.6c.8 0 1.4-.2 1.9-.7s.7-1.1.7-2v-.6h-2.1c-.1 0-.2 0-.2-.1-.2 0-.2 0-.2-.1v-.4c0-.1 0-.2.1-.2.1-.1.1-.1.2-.1h3.1c.1 0 .2 0 .2.1.1.1.1.1.1.2v1.3c0 .8-.2 1.4-.5 2s-.8 1-1.4 1.3-1.2.5-2 .5zm8.6-.2c-.1 0-.2 0-.2-.1-.1-.1-.1-.1-.1-.2V37c0-.1 0-.2.1-.2.1-.1.1-.1.2-.1h3.4c1.1 0 1.9.2 2.5.7s.9 1.2.9 2.2c0 .7-.2 1.3-.5 1.8-.4.5-.8.8-1.5 1l2.2 3.7v.2c0 .1 0 .1-.1.2s-.1.1-.2.1h-.6c-.1 0-.2 0-.3-.1-.1-.1-.2-.2-.2-.3l-2.1-3.6h-2.5v3.6c0 .1 0 .2-.1.2-.1.1-.1.1-.2.1h-.7v-.1zm3.4-5.1c1.4 0 2.1-.6 2.1-1.8s-.7-1.8-2.1-1.8h-2.4v3.6h2.4zm7.1 5.1c-.1 0-.1 0-.2-.1s-.1-.1-.1-.2v-.2l3.5-9.1c.1-.2.2-.3.4-.3h.9c.2 0 .4.1.4.3l3.5 9.1v.2c0 .1 0 .1-.1.2s-.1.1-.2.1h-.7c-.1 0-.2 0-.2-.1-.1-.1-.1-.1-.1-.2l-.8-2h-4.6l-.8 2c-.1.2-.2.2-.3.2l-.6.1zm2.2-3.4h3.8L76 38l-1.9 5zm10.5 3.4c-.1 0-.2 0-.2-.1-.1-.1-.1-.1-.1-.2V37c0-.1 0-.2.1-.2.1-.1.1-.1.2-.1h.7c.2 0 .3.1.3.2l3 5.7 3-5.7c.1-.1.2-.2.3-.2h.7c.1 0 .2 0 .2.1.1.1.1.1.1.2v9.1c0 .1 0 .2-.1.2-.1.1-.1.1-.2.1H92c-.1 0-.2 0-.2-.1-.1-.1-.1-.1-.1-.2v-7l-2.4 4.6c-.1.2-.2.3-.4.3h-.4c-.2 0-.3-.1-.4-.3l-2.4-4.6v7c0 .1 0 .2-.1.2-.1.1-.1.1-.2.1h-.8zM43 30.6c0-6.7-5.4-12.1-12.1-12.1s-12.1 5.4-12.1 12.1h-3c0-8.4 6.8-15.1 15.1-15.1 5.6 0 10.5 3 13.1 7.5.5-1.8 1.1-3.6 1.9-5.3-3.6-4.2-9-6.9-15-6.9-10.9 0-19.8 8.9-19.8 19.8h-3C8.1 18 18.3 7.8 30.9 7.8c6.5 0 12.4 2.7 16.5 7.1.8-1.3 1.7-2.5 2.6-3.6-4.9-4.9-11.7-7.9-19.1-7.9-15 0-27.2 12.2-27.2 27.2h-3C.7 13.9 14.2.4 30.9.4c8.2 0 15.7 3.3 21.2 8.7C57.5 3.7 65 .4 73.3.4c16.7 0 30.2 13.5 30.2 30.2h-3c0-15-12.2-27.2-27.2-27.2-7.5 0-14.2 3-19.1 7.9 1 1.1 1.8 2.4 2.6 3.6 4.2-4.4 10-7.1 16.5-7.1 12.6 0 22.8 10.2 22.8 22.8h-3c0-10.9-8.9-19.8-19.8-19.8-6 0-11.4 2.7-15 6.9.8 1.7 1.4 3.5 1.9 5.3 2.6-4.5 7.5-7.5 13.1-7.5 8.4 0 15.1 6.8 15.1 15.1h-3c0-6.7-5.4-12.1-12.1-12.1s-12.1 5.4-12.1 12.1h-3c0-3.6-.7-7-1.9-10.1-1.4 2.3-2.3 4.9-2.6 7.7.1.8.1 1.5.1 2.3h-3.3c0-.8 0-1.6.1-2.3-.3-2.8-1.2-5.4-2.6-7.8-1.2 3.1-1.9 6.5-1.9 10.1H43v.1zm6.5-13.2c1.1 1.5 1.9 3.1 2.6 4.8.7-1.7 1.6-3.3 2.6-4.8-.8-1.4-1.6-2.7-2.6-3.9-1 1.2-1.9 2.5-2.6 3.9zm51.3 29.2c-.8 0-1.4-.1-2-.4s-1-.6-1.3-1-.5-.8-.5-1.3c0-.1 0-.1.1-.2s.1-.1.2-.1h.7c.2 0 .3.1.3.3.1.4.3.7.7 1s1 .4 1.7.4c.8 0 1.4-.1 1.8-.4.4-.3.6-.7.6-1.2 0-.3-.1-.6-.3-.8-.2-.2-.5-.4-.9-.5-.4-.2-.9-.3-1.7-.6-.7-.2-1.3-.4-1.7-.7-.4-.2-.7-.5-1-.9-.2-.3-.3-.8-.3-1.3s.1-1 .4-1.4.7-.7 1.2-.9 1.1-.3 1.8-.3 1.4.1 1.9.4.9.6 1.2 1c.3.4.4.8.4 1.2 0 .1 0 .2-.1.2-.1.1-.1.1-.2.1h-.7c-.1 0-.1 0-.2-.1-.1 0-.1-.1-.1-.2-.1-.4-.3-.7-.7-1-.4-.3-.9-.4-1.5-.4s-1.1.1-1.5.4c-.4.2-.6.6-.6 1.1 0 .3.1.6.3.8s.4.4.8.5c.4.2.9.3 1.6.5.8.2 1.4.4 1.9.7.5.2.8.5 1 .8s.3.8.3 1.3c0 .9-.3 1.6-1 2.1-.5.6-1.4.9-2.6.9z"/></svg>