<svg xmlns="http://www.w3.org/2000/svg" width="165" height="60"><g fill="#2c396b"><path d="M70.9 24.9c-.1 0-.2 0-.3-.1-.1-.1-.1-.2-.1-.3V12.7c0-.1 0-.2.1-.3s.2-.1.3-.1h5.2c1.4 0 2.5.3 3.2.9s1 1.5 1 2.5c0 .6-.2 1.2-.5 1.6s-.7.8-1.1.9c.5.2.9.6 1.3 1.1s.5 1.1.5 1.8c0 1.1-.4 2-1.1 2.7-.8.7-1.8 1-3.2 1l-5.3.1zm4.9-7.4c.6 0 1.1-.1 1.4-.4s.5-.7.5-1.2-.2-.9-.5-1.2-.8-.4-1.4-.4H73v3.2h2.8zM76 23c.6 0 1.1-.2 1.5-.5.3-.3.5-.8.5-1.3s-.2-1-.5-1.3-.8-.5-1.4-.5h-3V23H76zm10.3 1.9c-.1 0-.2 0-.3-.1-.1-.1-.1-.2-.1-.3V12.7c0-.1 0-.2.1-.3s.2-.1.3-.1h7.9c.1 0 .2 0 .3.1.1.1.1.2.1.3v1.2c0 .1 0 .2-.1.3s-.2.1-.3.1h-5.9v3.1h5.5c.1 0 .2 0 .3.1s.1.2.1.3v1.1c0 .1 0 .2-.1.3s-.2.1-.3.1h-5.5v3.3h6c.1 0 .2 0 .3.1.1.1.1.2.1.3v1.2c0 .1 0 .2-.1.3 0 .4-.1.4-.2.4h-8.1zm13 0c-.1 0-.2 0-.3-.1-.1-.1-.1-.2-.1-.3v-.2l4.3-11.6c.1-.3.3-.4.6-.4h2c.3 0 .5.1.6.4l4.3 11.6v.2c0 .1 0 .2-.1.3-.1.1-.2.1-.3.1h-1.6c-.3 0-.4-.1-.5-.3l-.8-2.2h-5.3l-.8 2.2c-.1.2-.3.3-.5.3h-1.5zm3.6-4.6h4.1l-2-5.5-2.1 5.5zm17.4 4.8c-1.6 0-2.9-.4-3.8-1.2-.9-.8-1.3-2.1-1.3-3.8v-7.4c0-.1 0-.2.1-.3s.2-.1.3-.1h1.7c.1 0 .2 0 .3.1.1.1.1.2.1.3V20c0 .9.2 1.7.7 2.1.5.5 1.1.7 1.9.7.8 0 1.5-.2 1.9-.7.5-.5.7-1.2.7-2.1v-7.3c0-.1 0-.2.1-.3s.2-.1.3-.1h1.7c.1 0 .2 0 .3.1s.1.2.1.3V20c0 1.7-.4 2.9-1.3 3.8s-2.1 1.3-3.8 1.3zm14.1-.2c-.1 0-.2 0-.3-.1s-.1-.2-.1-.3v-10h-3.3c-.1 0-.2 0-.3-.1s-.1-.2-.1-.3v-1.4c0-.1 0-.2.1-.3s.2-.1.3-.1h9.2c.1 0 .2 0 .3.1s.1.2.1.3V14c0 .1 0 .2-.1.3s-.2.1-.3.1h-3.3v9.9c0 .1 0 .2-.1.3-.1.1-.2.1-.3.1h-1.8v.2zm14.4 0c-.1 0-.2 0-.3-.1s-.1-.2-.1-.3v-4.1l-4.3-7.5c0-.1-.1-.2-.1-.2 0-.1 0-.2.1-.3s.2-.1.3-.1h1.6c.2 0 .4.1.6.3l3 5.2 3-5.2c0-.1.1-.2.2-.2.1-.1.2-.1.3-.1h1.6c.1 0 .2 0 .3.1s.1.2.1.3 0 .1-.1.2l-4.2 7.5v4.1c0 .1 0 .2-.1.3-.1.1-.2.1-.3.1h-1.6zM74.7 45.1c-1 0-1.8-.2-2.6-.5-.7-.3-1.3-.7-1.7-1.2-.4-.5-.6-1.1-.6-1.6 0-.1 0-.2.1-.3s.2-.1.3-.1h.9c.2 0 .4.1.5.4.1.5.4.9.9 1.3s1.2.5 2.2.5 1.8-.2 2.3-.5c.5-.4.8-.9.8-1.5 0-.4-.1-.7-.4-1-.2-.3-.6-.5-1.1-.7s-1.2-.4-2.2-.7c-.9-.3-1.7-.5-2.2-.8s-1-.7-1.2-1.1c-.3-.4-.4-1-.4-1.7 0-.6.2-1.2.5-1.7s.9-.9 1.5-1.2c.7-.3 1.4-.4 2.3-.4s1.7.2 2.4.5 1.2.7 1.5 1.2.5 1 .6 1.5c0 .1 0 .2-.1.3s-.2.1-.3.1h-.9c-.1 0-.2 0-.3-.1-.1-.1-.1-.1-.2-.3-.1-.5-.4-.9-.9-1.3-.5-.3-1.1-.5-1.9-.5s-1.5.2-1.9.5c-.5.3-.7.8-.7 1.4 0 .4.1.8.3 1 .2.3.6.5 1 .7.5.2 1.1.4 2 .7 1 .3 1.8.6 2.4.9.6.3 1 .6 1.3 1.1s.4 1 .4 1.6c0 1.1-.4 2-1.3 2.6-.7.6-1.8.9-3.3.9zm13.2-.2c-.1 0-.2 0-.3-.1s-.1-.2-.1-.3V33.8H84c-.1 0-.2 0-.3-.1-.1-.1-.1-.2-.1-.3v-.7c0-.1 0-.2.1-.3s.2-.1.3-.1h8.6c.1 0 .2 0 .3.1.1.1.1.2.1.3v.7c0 .1 0 .2-.1.3s-.2.1-.3.1h-3.5v10.6c0 .1 0 .2-.1.3 0 .2-.1.2-.3.2h-.8zm14.9.2c-1.5 0-2.7-.4-3.6-1.3s-1.3-2.1-1.3-3.8v-7.3c0-.1 0-.2.1-.3s.2-.1.3-.1h.9c.1 0 .2 0 .3.1.1.1.1.2.1.3V40c0 1.2.3 2.1.8 2.6.5.6 1.3.9 2.3.9s1.8-.3 2.3-.9c.5-.6.8-1.5.8-2.6v-7.3c0-.1 0-.2.1-.3s.2-.1.3-.1h.9c.1 0 .2 0 .3.1.1.1.1.2.1.3V40c0 1.7-.4 3-1.3 3.8-.6.9-1.8 1.3-3.4 1.3zm11.3-.2c-.1 0-.2 0-.3-.1s-.1-.2-.1-.3V32.7c0-.1 0-.2.1-.3s.2-.1.3-.1h4.1c1.8 0 3.1.4 3.9 1.2.8.8 1.2 2 1.2 3.7V40c0 1.1-.2 2.1-.5 2.8s-.9 1.2-1.6 1.6c-.7.3-1.7.5-2.9.5h-4.2zm4.1-1.5c.8 0 1.5-.1 2-.4s.9-.6 1.1-1.1.3-1.2.4-2v-1.4-1.3c0-1.2-.3-2.1-.9-2.6-.5-.6-1.4-.8-2.7-.8h-2.7v9.6h2.8zm11.3 1.5c-.1 0-.2 0-.3-.1s-.1-.2-.1-.3V32.7c0-.1 0-.2.1-.3s.2-.1.3-.1h.9c.1 0 .2 0 .3.1s.1.2.1.3v11.8c0 .1 0 .2-.1.3s-.2.1-.3.1h-.9zm11.9.2c-1.6 0-2.8-.4-3.6-1.2-.9-.8-1.3-2.1-1.3-3.7v-1.5-1.5c0-1.6.5-2.9 1.4-3.7s2.1-1.3 3.6-1.3 2.7.4 3.6 1.3c.9.9 1.3 2.1 1.4 3.7v3c0 1.7-.5 2.9-1.3 3.7-1 .8-2.2 1.2-3.8 1.2zm0-1.5c1 0 1.7-.3 2.3-.9.6-.6.9-1.5.9-2.7v-1.4-1.4c0-1.2-.4-2.1-.9-2.7-.6-.6-1.3-.9-2.3-.9s-1.7.3-2.3.9c-.6.6-.9 1.5-.9 2.7V40c0 1.2.3 2.1.9 2.7.6.6 1.4.9 2.3.9zM60 52.7l-4-8.2L37.7 7.4h-4l17.6 35.7h-3.5L30.2 7.4l-19.9 39 7.9.1 28.5.2H53l2.9 5.9 4.1.1zm-43.8-9.9l14-27.5 1.9 3.9-12 23.7-3.9-.1zm7.9.1l10-19.6L43.8 43l-19.7-.1zM26.7 7.3h-4L0 52.2l4 .1 1.8-3.6z"/><path d="M9.3 48.7l-1.8 3.6 45 .3-1.8-3.6z"/></g></svg>