<svg xmlns="http://www.w3.org/2000/svg" width="145" height="60" viewBox="0 -5 145 60"><path fill="#2C396B" d="M36.3 49.8L18.9 2 5.2 39.2l3.9 10.6H0L18.2.1h18.2l18.2 49.7H36.3zm32.2-28.5c-1 0-1.8-.2-2.5-.7-.2-.1-.3-.2-.3-.4-.1-.3-.2-.6-.2-1s-.1-.8 0-1.3c0-.1.1-.2.3-.2h.2s.1.1.1.2c.2.8.6 1.5 1.1 2s1 .7 1.6.7c.5 0 .8-.2 1.1-.5.3-.3.4-.7.4-1.1 0-.3-.1-.6-.2-.8-.1-.2-.3-.4-.6-.6-.2-.2-.6-.4-1.1-.7-.6-.3-1.1-.6-1.4-.9-.4-.3-.7-.6-.9-1-.3-.4-.4-.9-.4-1.5s.2-1.1.5-1.6.8-.8 1.3-1.1c.5-.3 1.2-.4 1.9-.4.4 0 .7 0 1.1.1s.7.2.9.3c.1.1.2.1.3.2.1.1.1.2.2.3.1.5.2 1.1.2 1.9 0 .1 0 .1-.1.1s-.1.1-.2.1-.2 0-.3-.1c-.1 0-.1-.1-.2-.2-.2-.6-.4-1.1-.8-1.5-.4-.3-.8-.5-1.3-.5-1 0-1.5.5-1.5 1.4 0 .3.2.7.5 1 .3.3.9.7 1.6 1.1.9.5 1.5 1 1.8 1.5.4.5.5 1.1.5 1.8 0 1.1-.3 1.9-1 2.4s-1.4 1-2.6 1zm9.7-.2H78c-.1 0-.1-.1-.1-.2 0-.2.1-.3.4-.3.4-.1.7-.2.9-.4.2-.1.3-.4.3-.7v-6.6c0-.6 0-1-.1-1.1 0-.2-.1-.3-.2-.3-.1-.1-.4-.1-.8-.1H78c-.3 0-.7.1-1 .2-.3.2-.6.4-.7.6-.2.2-.3.4-.5.6-.1.2-.3.2-.4.2s-.2-.1-.2-.3c0-.2 0-.3.1-.4.2-.4.4-.8.5-1.1.1-.3.2-.6.2-1 0-.3.2-.4.4-.4.1 0 .1 0 .2.1l.1.1c.1.1.2.2.2.3.1.1.3.1.5.2.2 0 .5.1.6.1h6c.2 0 .5 0 .7-.1s.3-.1.4-.2c.1-.1.2-.1.3-.3l.2-.2c.1 0 .1-.1.2-.1s.2.1.2.3v.3c-.1.2-.1.3-.1.4s-.1.2-.1.5c-.1.3-.1.5-.1.8v.3c0 .4-.1.6-.3.6-.1 0-.2 0-.2-.1-.1-.1-.1-.3-.2-.5-.1-.4-.3-.7-.5-.9-.2-.2-.6-.3-1-.3h-.8c-.2 0-.4 0-.5.1s-.2.2-.2.5c0 .2-.1.6-.1 1.1v6.4c0 .3.1.5.3.7.2.1.5.3.9.4.1 0 .2.1.3.1.1 0 .1.1.1.2s0 .1-.1.2c-.2.3-.3.3-.4.3H78.2zm15.8.2c-1.5 0-2.6-.4-3.4-1.2s-1.2-1.8-1.2-3.1v-4.6c0-.3-.1-.6-.2-.8-.1-.2-.3-.4-.6-.5-.3-.1-.4-.2-.4-.4 0-.1 0-.1.1-.2.1 0 .2-.1.3-.1H92.9c.3 0 .4.1.4.2s0 .1-.1.2-.2.1-.3.1c-.1 0-.2.1-.3.1-.2.1-.3.2-.4.4-.1.2-.2.5-.2.8v4.2c0 1 .2 1.8.7 2.4.5.5 1.1.8 1.9.8 1 0 1.7-.3 2.2-.9s.7-1.5.7-2.6v-2-1c0-.7-.1-1.2-.2-1.5-.1-.3-.3-.5-.6-.7-.1 0-.2-.1-.3-.1-.1 0-.2-.1-.3-.1-.1 0-.1-.1-.1-.2s.2-.2.5-.2H99.4c.3 0 .4.1.4.2s-.1.3-.4.3c-.4.1-.6.3-.7.5-.1.2-.2.5-.2.9-.1 1.3-.1 2.8-.1 4.3 0 .9-.2 1.6-.6 2.3-.4.7-.9 1.2-1.6 1.6-.7.7-1.4.9-2.2.9zm14.1-.1c-.5 0-1.2 0-2.1-.1H102.6c-.1 0-.2 0-.2-.1-.1 0-.1-.1-.1-.2 0-.2.1-.3.3-.3.4-.1.7-.2.8-.3.1-.1.2-.4.2-.7v-7.3c0-.4-.1-.6-.2-.7-.1-.1-.4-.3-.8-.4-.2-.1-.3-.2-.3-.3s0-.1.1-.2c.1 0 .1-.1.2-.1h2.3c.2 0 .7 0 1.5-.1.7-.1 1.3-.1 1.8-.1 1.1 0 2 .2 2.9.7.9.4 1.6 1.1 2 1.8.5.8.7 1.7.7 2.7 0 1-.2 1.9-.7 2.7s-1.1 1.5-2 2c-.9.8-1.9 1-3 1zm-.3-.8c1.1 0 1.9-.4 2.4-1.1.6-.8.8-1.8.8-3.1 0-.9-.1-1.8-.4-2.5-.3-.7-.7-1.3-1.2-1.7s-1.1-.6-1.9-.6c-.6 0-1 0-1.2.1s-.3.2-.3.5v7c0 .5.1.9.4 1.1.4.2.8.3 1.4.3zm9 .7c-.1 0-.2 0-.2-.1-.1 0-.1-.1-.1-.2 0-.2.1-.3.3-.3.4-.1.7-.2.9-.3.2-.1.2-.4.2-.7v-7.3c0-.4-.1-.6-.2-.7s-.4-.3-.8-.4c-.2-.1-.3-.2-.3-.3s0-.1.1-.2c.1 0 .1-.1.2-.1h4.6c.2 0 .3.1.3.2s0 .2-.1.2-.1.1-.3.1c-.4.1-.7.2-.8.4-.1.1-.2.4-.2.7v7.2c0 .3.1.5.2.7.1.1.4.3.9.4.1 0 .2.1.3.1.1 0 .1.1.1.2 0 .2-.1.2-.3.2h-3.4c-.6.2-1 .2-1.4.2zm13.2.2c-1 0-1.9-.2-2.7-.7-.8-.4-1.5-1.1-2-1.9s-.8-1.7-.8-2.7c0-1 .2-1.9.7-2.8.4-.9 1.1-1.5 2-2.1.9-.5 1.9-.8 3.1-.8 1 0 1.9.2 2.8.7.8.4 1.5 1.1 2 1.9s.8 1.7.8 2.7-.2 1.9-.7 2.8-1.1 1.5-2 2.1c-1 .6-2 .8-3.2.8zm.3-.7c.9 0 1.6-.4 2-1.1s.7-1.7.7-2.9c0-.9-.1-1.8-.4-2.6-.2-.8-.6-1.5-1.1-2s-1.1-.8-1.8-.8c-.9 0-1.6.4-2 1.1-.5.7-.7 1.7-.7 2.9 0 .9.1 1.8.4 2.6.2.8.6 1.5 1.1 2s1.1.8 1.8.8zM68.4 39.2c-.3 0-.4-.1-.4-.2s0-.1.1-.2.2-.1.4-.1c.4-.1.7-.2.9-.4.2-.2.3-.4.3-.8v-6.4c0-.7 0-1.1-.1-1.3 0-.2-.1-.4-.2-.4-.2 0-.5-.1-1-.1h-.6c-.3 0-.6.1-.8.2-.3.1-.5.3-.6.5-.3.4-.5.7-.7.7-.1 0-.2-.1-.2-.2s0-.2.1-.4c.2-.3.3-.6.4-.9s.1-.6.2-.9c0-.3.1-.4.3-.4.1 0 .1.1.2.2s.2.3.2.3c.1.1.2.2.5.2.2.1.5.1.7.1h5.8c.6 0 1.1-.1 1.4-.2.1-.1.2-.1.3-.2 0 0 .1 0 .2-.1s.2-.1.3-.1c0 0 .1 0 .1.1V28.8l-.1.5c0 .1-.1.2-.1.3V30.2c0 .1 0 .3-.1.4 0 .1-.1.2-.2.2s-.2-.1-.2-.2-.1-.3-.2-.5c-.1-.3-.2-.5-.4-.6s-.6-.2-1.1-.2h-1.3c-.2 0-.4 0-.5.1s-.2.2-.2.5c0 .2-.1.7-.1 1.2v6.3c0 .3.1.6.3.8s.5.3.9.4c.2 0 .3.1.4.1s.1.1.1.2-.1.2-.4.2h-3.1c-.7 0-1.1.1-1.5.1zm15.7.2c-.1 0-.1-.1-.3-.4l-3.7-8.7c-.1-.3-.3-.5-.5-.7s-.4-.3-.7-.4c-.2-.1-.3-.1-.4-.2s-.1-.1-.1-.2.1-.2.4-.2h3.3c.3 0 .5.1.5.2s0 .1-.1.2c-.1 0-.2.1-.4.1-.1 0-.2.1-.3.2 0 .1-.1.2-.1.3v.4c0 .1.1.2.1.2.7 1.8 1.6 3.9 2.6 6.1.1.1.1.2.1.2s.1-.1.1-.2l1.1-2.6c.1-.1.1-.3.1-.4 0-.1 0-.2-.1-.4l-1.2-2.7c-.1-.3-.3-.6-.6-.8-.3-.2-.6-.4-.9-.4.2.1 0 .1 0 0-.1 0-.1-.1-.1-.2s.1-.2.4-.2H87c.1 0 .1.1.1.1 0 .1 0 .1-.1.1s-.1.1-.2.1c0 0-.1 0-.2.1l-.2.2c-.1 0-.1.1-.1.2v.1c.4 1 .6 1.6.7 1.9.1.1.1.2.1.2s.1-.1.1-.2c.1-.3.3-.8.5-1.4l.2-.4v-.2c0-.1 0-.2-.1-.2-.1-.1-.2-.1-.3-.2 0 0-.1 0-.1-.1-.1 0-.1-.1-.1-.1v-.1c0-.1.1-.2.4-.2h1.9c.1 0 .3 0 .3.1.1 0 .1.1.1.2s0 .1-.1.2-.2.1-.4.1c-.3.1-.5.2-.7.3-.1.1-.3.3-.4.6-.2.4-.5 1-.9 2.1-.1.2-.1.3-.1.4v.2l1.5 3.7c0 .1.1.1.1.1s.1 0 .1-.1c.5-1.3 1.2-3.3 2.1-6 .1-.2.1-.5.1-.7 0-.3-.2-.5-.5-.6s-.5-.2-.5-.3c0-.1 0-.1.1-.1H93.3c.3 0 .5.1.5.2s0 .1-.1.2c-.1 0-.2.1-.4.1-.3.1-.6.2-.8.5-.2.2-.4.5-.5.8L89 39c-.1.2-.2.4-.3.4-.1 0-.2-.1-.3-.3-.3-.6-.6-1.5-1.2-2.7l-.8-1.8c0-.1-.1-.1-.1-.1s-.1.1-.1.2c-.8 1.8-1.4 3.3-1.9 4.4 0 .1-.1.3-.2.3zm12.6-.2c-.3 0-.4-.1-.4-.2s.2-.2.5-.3c.4-.1.7-.2.9-.4.2-.2.3-.4.3-.8v-7.2c0-.4-.1-.6-.2-.8-.1-.2-.4-.3-.8-.4-.3-.1-.5-.2-.5-.3 0-.1 0-.1.1-.2.1 0 .2-.1.3-.1H103.7c.1 0 .1.1.1.1l.1.5c.1.6.2 1 .2 1.3 0 .1 0 .2-.1.2 0 0-.1.1-.2.1s-.2-.1-.2-.2c0 0 0-.1-.1-.3-.1-.2-.1-.3-.2-.4s-.1-.2-.2-.3c-.3-.3-.7-.4-1.1-.4h-1.8c-.1 0-.3.1-.4.2s-.2.2-.2.4v3.4c0 .1 0 .2.1.3s.1.1.2.1h1.5c.3 0 .5-.1.6-.2s.2-.3.3-.7c.1-.2.2-.3.3-.3.1 0 .1 0 .1.1s.1.1.1.2c0 .6-.1 1-.1 1.2v1.3c0 .2 0 .3-.1.3-.2 0-.3-.2-.4-.5s-.2-.5-.3-.6c-.1-.1-.3-.2-.5-.2H100c-.2 0-.3 0-.4.1s-.1.2-.1.3v3.1c0 .4.1.6.2.8.2.1.4.2.7.2h1.3c.6 0 1.1-.1 1.4-.3.2-.1.3-.3.5-.5.1-.2.3-.5.4-.8.1-.1.2-.2.3-.2.1 0 .2.1.2.3s-.1.5-.2.8-.2.7-.3 1.1c-.1.2-.2.3-.3.3h-6c-.6-.1-.9-.1-1-.1zm20.9.2c-.1 0-.4-.1-.7-.3-.3-.2-.6-.4-.8-.8l-1.7-2c-2.6-3-4-4.7-4.3-4.9-.1-.2-.2-.2-.3-.2 0 0-.1 0-.1.1v6c0 .7.4 1.1 1.1 1.3.3.1.5.2.5.3s-.1.2-.4.2h-3c-.3 0-.4-.1-.4-.2s0-.1.1-.2c.1 0 .2-.1.4-.1.5-.1.8-.6.9-1.3s.1-1.7.2-2.8c.1-1.2.1-2.3.1-3.5 0-.5-.1-.9-.4-1.2-.3-.3-.6-.5-1.2-.6-.1 0-.2-.1-.3-.1-.1-.1-.2-.1-.2-.2s0-.1.1-.2c.1 0 .2-.1.3-.1h2.7c.1 0 .1 0 .2.1l.2.2 1.9 2.2c.7.8 1.4 1.7 2.2 2.7.8 1 1.5 1.8 2.1 2.4.2.2.3.3.4.3s.1-.1.2-.3v-6.1c0-.2-.1-.4-.3-.6-.2-.2-.4-.3-.7-.3-.2 0-.3-.1-.4-.1-.1-.1-.2-.1-.2-.2s.1-.1.2-.1h3.3c.3 0 .4.1.4.2s-.2.3-.5.3c-.4.1-.6.2-.8.3s-.2.3-.2.6c-.1 2.9-.1 5.2-.1 7.1 0 .3 0 .7.1 1.3v.4c-.2.2-.4.4-.6.4zm7.4-.2c-.3 0-.4-.1-.4-.2s0-.1.1-.2.2-.1.4-.1c.4-.1.7-.2.9-.4.2-.2.3-.4.3-.8v-6.4c0-.7 0-1.1-.1-1.3 0-.2-.1-.4-.2-.4-.2 0-.5-.1-1-.1h-.6c-.3 0-.6.1-.8.2s-.5.3-.6.5c-.3.4-.5.7-.7.7-.1 0-.2-.1-.2-.2s0-.2.1-.4c.2-.3.3-.6.4-.9s.1-.6.2-.9c0-.3.1-.4.3-.4.1 0 .1.1.2.2s.2.3.2.3c.1.1.2.2.5.2.2.1.5.1.7.1h5.8c.6 0 1.1-.1 1.4-.2.1-.1.2-.1.3-.2 0 0 .1 0 .2-.1s.2-.1.3-.1c0 0 .1 0 .1.1V28.8l-.1.5c0 .1-.1.2-.1.3V30.2c0 .1 0 .3-.1.4 0 .1-.1.2-.2.2s-.2-.1-.2-.2-.1-.3-.2-.5c-.1-.3-.2-.5-.4-.6s-.6-.2-1.1-.2h-1.3c-.2 0-.4 0-.5.1s-.2.2-.2.5c0 .2-.1.7-.1 1.2v6.3c0 .3.1.6.3.8s.5.3.9.4c.2 0 .3.1.4.1s.1.1.1.2-.1.2-.4.2h-3.1c-.7 0-1.1.1-1.5.1zm12.5 0c-.3 0-.5-.1-.5-.2s.2-.3.5-.3c.8-.1 1.2-.6 1.2-1.3v-2.3c0-.4-.1-.8-.4-1.3l-1.9-3.1c-.2-.4-.4-.7-.7-.9-.2-.3-.5-.4-.7-.5s-.3-.1-.4-.2c-.1 0-.1-.1-.1-.2s.1-.2.4-.2H138.8c.1 0 .1.1.1.1 0 .1-.2.3-.5.3-.2.1-.4.1-.5.2s-.1.2-.1.3c0 .1.1.3.2.6l1.5 2.8c.2.3.3.5.4.5.1 0 .1 0 .2-.1s.1-.2.3-.4c.3-.5.8-1.4 1.4-2.4.2-.3.3-.5.3-.8 0-.2-.1-.3-.2-.4s-.3-.1-.5-.2c-.1 0-.2-.1-.3-.1-.1-.1-.2-.1-.2-.2s0-.1.1-.1H144.4c.3 0 .5.1.5.2s-.1.1-.2.2-.3.1-.6.2-.5.2-.7.4c-.2.2-.4.5-.7.9l-.4.5-1.5 2.4c-.2.3-.3.5-.3.7s-.1.4-.1.8v2.4c0 .4.1.7.3.9s.5.4.9.4c.2 0 .3.1.4.1.1 0 .1.1.1.2s-.2.2-.5.2H138c-.2 0-.3-.1-.5-.1z"/></svg>