<svg xmlns="http://www.w3.org/2000/svg" width="145" height="60" viewBox="0 -5 145 60"><path fill="#2C396B" d="M30.7 3.2H19.9V29H31c5.1-.1 9.2-6.5 9.2-12.9-.1-7.2-4.3-12.9-9.5-12.9zM16.8 32H6.9L3 42.1c-.2.6-.8 1-1.4 1-.1 0-.4-.1-.6-.1-.8-.3-1.2-1.2-.9-2L15.3 1c.3-.4.9-.8 1.5-.8h13.9c6.9 0 13.1 7.5 13.1 15.9 0 5.5-3.6 12.7-7.9 14.7l.6.3c2.9 1.6 5.9 4.7 5.9 9.6 0 2.5.2 4 .6 5 .2.7.6 1 .6 1 .7-.1 1.4.3 1.7 1 .2.8-.2 1.7-1 2-.1 0-.4.1-.8.1h-.1c-.8 0-2.1-.6-2.8-2-.8-1.4-1.2-3.4-1.2-7 0-3.1-1.6-5.1-3.6-6.5-1.9-1.3-4.2-2-5.1-2.1-.2-.1-.2-.1-.3-.1H19.9v9.7c0 .8-.7 1.5-1.6 1.5-.8 0-1.5-.7-1.5-1.5V32zm0-3V6.1L8 29h8.8zm42-7.8c-.1 0-.2 0-.3-.1s-.1-.2-.1-.3V9c0-.1 0-.2.1-.3s.2-.1.3-.1H64c1.4 0 2.5.3 3.2.9.7.6 1 1.5 1 2.5 0 .6-.2 1.2-.5 1.6s-.7.8-1.1.9c.5.2.9.6 1.3 1.1s.5 1.1.5 1.8c0 1.1-.4 2-1.1 2.7-.8.7-1.8 1-3.2 1h-5.3v.1zm4.9-7.4c.6 0 1.1-.1 1.4-.4.3-.3.5-.7.5-1.2s-.2-.9-.5-1.2c-.3-.3-.8-.4-1.4-.4h-2.8v3.2h2.8zm.2 5.5c.6 0 1.1-.2 1.5-.5.3-.3.5-.8.5-1.3s-.2-1-.5-1.3c-.4-.3-.8-.5-1.4-.5h-3v3.6h2.9zm7.1 1.9c-.1 0-.2 0-.3-.1-.1-.1-.1-.2-.1-.3v-8.5c0-.1 0-.2.1-.3s.2-.1.3-.1h1.5c.1 0 .2 0 .3.1.1.1.1.2.1.3v.7c.6-.8 1.5-1.2 2.6-1.2h.8c.1 0 .2 0 .3.1.1.1.1.2.1.3v1.3c0 .1 0 .2-.1.3s-.2.1-.3.1h-1.4c-.6 0-1 .2-1.3.5-.3.3-.5.8-.5 1.3v4.9c0 .1 0 .2-.1.3-.2.3-.3.3-.4.3H71zm9.8.2c-.6 0-1.2-.1-1.7-.4-.5-.2-.9-.6-1.2-1-.3-.4-.4-.9-.4-1.4 0-.8.3-1.5 1-2s1.6-.8 2.7-1l2.5-.4v-.4c0-.5-.1-.9-.4-1.2-.3-.3-.7-.4-1.3-.4-.4 0-.7.1-1 .2-.2.1-.4.3-.6.4l-.3.3c0 .1-.1.2-.3.2h-1.4c-.1 0-.2 0-.3-.1-.1-.1-.1-.2-.1-.3 0-.3.2-.6.4-1 .3-.4.7-.7 1.3-1 .6-.3 1.3-.4 2.2-.4 1.4 0 2.4.3 3.1 1 .6.6 1 1.5 1 2.5v5.7c0 .1 0 .2-.1.3 0 .2-.1.2-.2.2h-1.5c-.1 0-.2 0-.3-.1-.1-.1-.1-.2-.1-.3v-.7c-.3.4-.6.7-1.1.9-.6.3-1.2.4-1.9.4zm.6-1.7c.7 0 1.2-.2 1.6-.6s.6-1.1.6-1.9v-.4l-1.8.3c-1.4.2-2.1.7-2.1 1.4 0 .4.2.7.5.9.4.1.8.3 1.2.3zm7.4 1.5c-.1 0-.2 0-.3-.1-.1-.1-.1-.2-.1-.3v-8.5c0-.1 0-.2.1-.3s.2-.1.3-.1h1.5c.1 0 .2 0 .3.1.1.1.1.2.1.3v.7c.7-.9 1.7-1.4 3-1.4 1.1 0 2 .4 2.6 1.1.6.7 1 1.7 1 3v5.1c0 .1 0 .2-.1.3 0 .1-.1.1-.3.1h-1.6c-.1 0-.2 0-.3-.1-.1-.1-.1-.2-.1-.3v-5c0-.7-.2-1.2-.5-1.6-.3-.4-.8-.6-1.5-.6-.6 0-1.1.2-1.5.6-.4.4-.6.9-.6 1.6v5c0 .1 0 .2-.1.3 0 .1-.1.1-.3.1h-1.6zm14.3.2c-1.2 0-2.1-.4-2.8-1.2-.6-.8-1-1.8-1.1-3.1v-1.2c0-1.3.4-2.3 1.1-3.1.7-.8 1.6-1.2 2.8-1.2 1.2 0 2.1.4 2.8 1.2v-4c0-.1 0-.2.1-.3s.2-.1.3-.1h1.6c.1 0 .2 0 .3.1.1.1.1.2.1.3v11.9c0 .1 0 .2-.1.3-.1.1-.2.1-.3.1h-1.5c-.1 0-.2 0-.3-.1-.1-.1-.1-.2-.1-.3V20c-.7 1-1.6 1.4-2.9 1.4zm.7-2c.7 0 1.2-.2 1.5-.7.3-.4.5-1 .5-1.6v-.7-.7c0-.6-.2-1.1-.6-1.5-.3-.4-.9-.6-1.5-.6-1.3 0-2 .8-2.1 2.4v1c.2 1.6.9 2.4 2.2 2.4zm-40.7 21c-1.6 0-2.8-.4-3.6-1.3s-1.3-2.1-1.3-3.6v-1.6-1.6c.1-1.5.5-2.7 1.3-3.6s2-1.3 3.6-1.3c1.1 0 2 .2 2.7.6s1.3.9 1.7 1.5c.4.6.6 1.3.6 2 0 .1 0 .2-.1.3-.1.1-.2.1-.3.1h-.9c-.1 0-.2 0-.3-.1-.1-.1-.1-.2-.2-.3-.2-.9-.6-1.6-1.1-1.9S63.9 29 63 29c-2.1 0-3.2 1.2-3.3 3.5v3c.1 2.3 1.2 3.5 3.3 3.5.9 0 1.6-.2 2.2-.6.5-.4.9-1 1.1-1.9 0-.1.1-.2.2-.3s.2-.1.3-.1h.9c.1 0 .2 0 .3.1.1.1.1.2.1.3 0 .7-.2 1.3-.6 2-.4.6-.9 1.1-1.7 1.5s-1.6.4-2.7.4zm11 0c-1.3 0-2.3-.4-3.1-1.1s-1.1-1.7-1.1-3v-1.6c0-1.2.4-2.2 1.2-3 .8-.8 1.7-1.1 3-1.1s2.3.4 3 1.1c.7.7 1.1 1.7 1.2 3v1.6c0 1.2-.4 2.2-1.1 3s-1.8 1.1-3.1 1.1zm0-1.4c.8 0 1.4-.2 1.8-.7.5-.5.7-1.2.7-2.1v-.7-.7c0-.9-.3-1.6-.7-2.1-.5-.5-1.1-.7-1.8-.7-.8 0-1.4.2-1.8.7-.5.5-.7 1.2-.7 2.1v1.4c0 .9.3 1.6.7 2.1.4.5 1 .7 1.8.7zm9.7 1.4c-.8 0-1.5-.1-2.1-.4-.6-.3-1-.6-1.3-.9-.2-.4-.4-.7-.4-.9 0-.1 0-.2.1-.3s.2-.1.3-.1h1l.2.2c.3.3.6.6.9.8s.8.3 1.4.3 1.2-.1 1.6-.4c.4-.2.6-.6.6-1 0-.3-.1-.5-.3-.7-.2-.2-.4-.3-.8-.5-.4-.1-1-.3-1.7-.5-1-.2-1.8-.6-2.2-1-.4-.4-.6-1-.6-1.7 0-.4.1-.9.4-1.3s.7-.7 1.2-1 1.1-.4 1.9-.4 1.4.1 1.9.4.9.5 1.2.9c.3.3.4.6.4.8 0 .1 0 .2-.1.3s-.2.1-.3.1h-.7c-.2 0-.3-.1-.4-.2l-.5-.5c-.1-.1-.5-.2-.8-.3-.3-.1-.6-.1-1-.1-.6 0-1 .1-1.4.4-.3.2-.5.6-.5 1 0 .3.1.5.2.6.1.2.4.3.8.5s.9.3 1.7.5c1.1.2 1.9.6 2.4 1s.7 1 .7 1.7c0 .5-.1 1-.4 1.4s-.7.7-1.3 1c-.6.2-1.3.3-2.1.3zm6.4-.2c-.1 0-.2 0-.3-.1s-.1-.2-.1-.3v-8.5c0-.1 0-.2.1-.3s.2-.1.3-.1h.8c.1 0 .2 0 .3.1.1.1.1.2.1.3v.6c.6-.8 1.5-1.2 2.6-1.2 1.3 0 2.3.6 2.8 1.7.3-.5.7-.9 1.2-1.2.5-.3 1.1-.5 1.8-.5 1 0 1.8.3 2.4 1 .6.7.9 1.6.9 2.9v5.2c0 .1 0 .2-.1.3s-.2.1-.3.1h-.8c-.1 0-.2 0-.3-.1-.1-.1-.1-.2-.1-.3v-5c0-1-.2-1.6-.6-2.1-.4-.4-.9-.6-1.6-.6-.6 0-1.1.2-1.5.6s-.6 1.1-.6 2v5c0 .1 0 .2-.1.3 0 .2-.1.2-.2.2h-.8c-.1 0-.2 0-.3-.1s-.1-.2-.1-.3v-5c0-.9-.2-1.6-.6-2.1s-.9-.6-1.5-.6-1.1.2-1.5.6-.6 1.1-.6 2v5.1c0 .1 0 .2-.1.3s-.3.1-.4.1h-.8zm19.3.2c-1.2 0-2.2-.4-2.9-1.1-.7-.8-1.1-1.8-1.2-3.1V35c.1-1.3.5-2.3 1.2-3.1.7-.8 1.7-1.2 2.9-1.2 1.3 0 2.3.4 3.1 1.3.7.8 1.1 2 1.1 3.4v.3c0 .1 0 .2-.1.3s-.2.1-.3.1h-6.2v.1c0 .8.3 1.4.7 2 .4.6 1 .8 1.8.8.6 0 1-.1 1.4-.3s.6-.5.8-.7l.3-.3h1.1c.1 0 .2 0 .3.1.1.1.1.1.1.2 0 .3-.2.6-.5 1s-.8.7-1.4 1c-.8.2-1.5.4-2.2.4zm2.5-5.5c0-.9-.2-1.6-.7-2.1s-1.1-.8-1.8-.8c-.8 0-1.4.3-1.8.8s-.7 1.2-.7 2.1v.1l5-.1zm7.4 5.3c-1.9 0-2.8-1-2.8-3.2v-4.8h-1.4c-.1 0-.2 0-.3-.1-.1-.1-.1-.2-.1-.3v-.6c0-.1 0-.2.1-.3s.2-.1.3-.1h1.4v-3c0-.1 0-.2.1-.3s.2-.1.3-.1h.8c.1 0 .2 0 .3.1.1.1.1.2.1.3v3h2.2c.1 0 .2 0 .3.1.1.1.1.2.1.3v.6c0 .1 0 .2-.1.3-.1.1-.2.1-.3.1h-2.2v4.7c0 .6.1 1.1.3 1.4.2.3.5.5 1 .5h1.1c.1 0 .2 0 .3.1s.1.2.1.3v.6c0 .1 0 .2-.1.3s-.2.1-.3.1h-1.2zm3.7-11.1c-.1 0-.2 0-.3-.1-.1-.1-.1-.2-.1-.3v-.9c0-.1 0-.2.1-.3.1-.1.2-.1.3-.1h1.1c.1 0 .2 0 .3.1.1.1.1.2.1.3v.9c0 .1 0 .2-.1.3-.1.1-.2.1-.3.1h-1.1zm.1 11.1c-.1 0-.2 0-.3-.1-.1-.1-.1-.2-.1-.3v-8.5c0-.1 0-.2.1-.3.1-.1.2-.1.3-.1h.8c.1 0 .2 0 .3.1s.1.2.1.3v8.5c0 .1 0 .2-.1.3s-.2.1-.3.1h-.8zm7.7.2c-1.3 0-2.3-.4-3-1.1-.7-.7-1.1-1.7-1.1-3.1v-1.4c0-1.3.4-2.3 1.1-3.1.7-.7 1.7-1.1 3-1.1.9 0 1.6.2 2.2.5s1 .7 1.3 1.1c.3.5.5.9.5 1.4 0 .1 0 .2-.1.3s-.2.1-.3.1h-.8c-.1 0-.2 0-.3-.1s-.1-.2-.2-.3c-.2-.6-.5-1-.9-1.3-.4-.2-.9-.4-1.4-.4-.8 0-1.4.2-1.8.7-.4.5-.7 1.2-.7 2.1v1.2c0 1 .3 1.7.7 2.1.4.5 1 .7 1.8.7.6 0 1.1-.1 1.4-.4.4-.2.7-.7.9-1.3.1-.1.1-.2.2-.3.1-.1.2-.1.3-.1h.8c.1 0 .2 0 .3.1s.1.2.1.3c0 .4-.2.9-.5 1.4s-.7.8-1.3 1.2c-.7.6-1.4.8-2.2.8zm9.3 0c-.8 0-1.5-.1-2.1-.4-.6-.3-1-.6-1.3-.9-.3-.3-.4-.6-.4-.9 0-.1 0-.2.1-.3s.2-.1.3-.1h1l.2.2c.3.3.6.6.9.8.3.2.8.3 1.4.3.6 0 1.2-.1 1.6-.4.4-.2.6-.6.6-1 0-.3-.1-.5-.3-.7s-.4-.3-.8-.5c-.4-.1-1-.3-1.7-.5-1-.2-1.8-.6-2.2-1s-.6-1-.6-1.7c0-.4.1-.9.4-1.3.3-.4.7-.7 1.2-1s1.1-.4 1.9-.4c.8 0 1.4.1 1.9.4s.9.5 1.2.9c.3.3.4.6.4.8 0 .1 0 .2-.1.3s-.2.1-.3.1h-.7c-.2 0-.3-.1-.4-.2l-.5-.5c-.1-.1-.3-.2-.6-.3-.3-.1-.6-.1-1-.1-.6 0-1 .1-1.3.4-.3.2-.5.6-.5 1 0 .3.1.5.2.6.1.2.4.3.8.5s.9.3 1.7.5c1.1.2 1.9.6 2.4 1s.7 1 .7 1.7c0 .5-.1 1-.4 1.4-.3.4-.7.7-1.3 1s-1.6.3-2.4.3z"/></svg>