<svg xmlns="http://www.w3.org/2000/svg" width="250" height="32"><path d="M249.8 19.8c-3.1-1.2-6.2-2.6-9.6-2.7-2.7 0-4.6 1.3-7 2-.1-.2-.3-.3-.5-.3-3.6-.9-7.2-1.7-10.8-2.5 1.5-.2 3-.7 4.4-1.6 1-.6 1.9-1.4 2.6-2.3.5-.7 1.6-3 2.6-3.4h.5c.8 0 .8-1.2 0-1.3h-.8c-4.7.2-13.3 1.3-13 7.3 0 .2.2.3.3.4v.1c-8.6-1.8-17.2-3.3-25.9-4.4 4.7-.6 9.1-3.2 11.9-7.3.3-.4-.4-.9-.7-.5-.2.2-.3.4-.5.6-6-.3-13.4.4-16.1 6.6-10.8-1.2-21.7-1.9-32.6-1.9 2.4-1 5.2-.7 7.6-1.9 2.3-1.1 4-2.8 5.2-5.1.2-.4-.1-.7-.5-.7-5.6 1-11.6 2.4-14.9 7.4-.1.1-.1.1-.1.2-5.8.1-11.5.4-17.3.9v-.1c-.4-4.2-4.1-7.7-8-8.7-.4-.1-.7.2-.7.6-.2 3.3 1.5 7 4.5 8.6-2.5.3-5 .6-7.6.9-6.3.9-12.5 2-18.8 3 .2-.1.3-.3.2-.6-3-4.9-8.8-5.4-14-5.5-.4 0-.8.5-.5.9 2.2 3.3 5.7 5.5 9.5 6.1-9.7 1.7-19.4 3.5-29.1 4.7v-.1c-2.7-6.2-9.8-6.8-15.7-6.7-.5 0-.7.6-.4.9 3.6 3.8 8.4 6.1 13.6 6.2-.7.1-1.3.2-2 .2-11 1.2-22.5 1.8-33.5.3 2.2-5-5.5-9.1-9-10.7-.4-.2-1 .2-.7.7 1.9 2.5 2.5 6.9 4.8 9.2-5.6-1.1-11-2.9-16.2-5.5.7-2.2 0-4.6-1.6-6.4-2-2.3-5.5-3.1-8.7-3.7-.7-.1-1 .7-.5 1.1 3.5 2.3 4.6 10 9.7 9.6l.3.3c0 .1.1.2.2.3 2.1 1.2 4.3 2.2 6.4 3-2.9.9-5.4 4.3-7.9 5.6-.6.3-.5 1.3.2 1.5 4.8.9 12.7 1.3 14-5 7.5 2.1 15.4 2.9 23.3 2.9-4.3 1.1-7.8 3.8-11.4 6.7-.4.3-.2 1.1.3 1.2 6.8 1.6 13.9-1.8 17-8 1.9-.1 3.9-.2 5.8-.3 8.2-.6 16.4-1.7 24.5-3.1-3 2.3-4.8 6-4.6 9.9 0 .5.5.8 1 .5 4.2-2.4 9.2-6 8.6-11.3 8.4-1.4 16.7-3 25.1-4.4 2.4-.4 4.9-.8 7.3-1.1-1.8 1-3.4 2.5-4.6 4-1 1.3-4.4 5.6-2 7.1 2.5 1.7 6.8-2.7 8.4-4.2 2-2 4.5-4.6 3.6-7.6 3.1-.4 6.3-.7 9.4-1 3.2 5.2 9.1 8.2 15.1 8.7.5 0 .8-.6.5-.9-2.3-3.4-5.5-6.4-9.2-8.2 9.4-.6 18.9-.7 28.4-.1 4.1 4.5 10 7.1 16.1 7.4.4 0 .8-.5.5-.9-1.7-2.4-3.9-4.4-6.4-5.6 10.5 1.1 21 2.8 31.3 4.8.4 2.6 2.6 4.6 4.7 6.2 1.4 1.1 2.9 2.2 4.6 2.9 1 .4 3.3 1.4 4.4.7 2-1.4-1.1-4.2-2.1-5.1-1.6-1.4-3.4-2.5-5.3-3.4 4.8.9 9.6 1.9 14.4 2.9 3.8 5.7 13 1.8 17.9-.1.4-.3.4-.7.1-.9zM10.2 13c-.7-2-2.3-3.9-3.9-5.2-.2-.2-.5.1-.3.3.8.9 1.6 1.8 2.2 2.8.5.8.8 1.6 1.2 2.5-3.5-1.1-4.5-5.3-6.8-8.1 3.9 1 8.3 3.2 7.6 7.7zm1.2 10.8c2.7-2.4 5.6-6.2 9.2-4.4h.1c-2.1.7-4.1 1.7-5.8 3.1-.3.3.1.8.4.6 2.3-1.3 4.5-2.5 7-3.2-1.8 4.6-6.7 4.6-10.9 3.9zm20-4.5c-1.2-1.8-2.7-3.4-4-5-.2-.2-.5.1-.4.3 1.2 1.8 2.3 3.8 3.7 5.6l-1.8-.3c-2.7-1.7-3.3-5.7-4.8-8.6 3.3 1.6 8 4.5 7.3 8zm5.8 10.5c2.8-2.5 5.8-4.3 9.2-5.4-1.6 1-3 2.1-4.2 3.4-.2.2.1.5.3.4 1.6-.8 3-2 4.5-2.9.9-.6 1.9-1.1 2.8-1.7.3-.1.6-.1 1-.2.2 0 .4-.2.4-.4h.3c-3.1 4.8-8.6 7.4-14.3 6.8zm31.6-10.9c-2.5-1.4-5.1-2.7-7.6-4.1-.3-.2-.6.3-.3.5 1.9 1.2 3.9 2.3 5.8 3.4-4.1-.6-7.8-2.3-10.9-5.1 5 0 10.6.6 13 5.3zm10.7 9.4c.3-3.8 2.3-7.1 5.4-9.1.3-.1.7-.1 1-.2-1.1 1.4-2.1 3-2.9 4.6-.1.2.2.4.3.2 1.1-1.4 2.2-3 3.3-4.5-.3 4.2-3.6 7-7.1 9zM103.4 14c0-.2-.1-.4-.3-.4-2.2-.9-4.1-2-6.1-3.2-.2-.1-.5.2-.3.4 1.3 1.3 3 2.3 4.7 3.1-3.9-.2-7.4-1.8-9.9-4.9 4.5.1 9.4.6 12 4.7.1.1.2.2.3.2-.1.1-.2.1-.4.1zm17.4 5.1c-1 .9-1.9 1.8-3 2.6-1 .7-3.8 2.6-3.2-.3.4-1.9 2.4-4 3.8-5.3 1.6-1.5 3.3-2.4 5.2-3.3.2 0 .5-.1.7-.1v.2c-.1 0-.3.1-.4.2-1.4 1.9-3 3.4-4.8 4.9-.3.2.1.6.3.4 1.9-1.1 3.5-2.6 4.8-4.3-.2 1.9-1.8 3.5-3.4 5zm8.4-14c1 1.5 2.1 3.2 3.3 4.6h-.2c-3-1.6-5.1-4.2-5.2-7.6 3.5 1.2 5.4 3.9 6.6 7.3-.5-.6-1.1-1.1-1.6-1.7-.9-1-1.7-2-2.5-3-.2-.2-.6.1-.4.4zm19.4 13.7c-5.1-.7-9.3-3.4-12.6-7.4.3 0 .7-.1 1-.1 1.8 1.3 3.6 2.6 5.5 3.8.5.3.9-.5.5-.8-1.6-1.1-3.2-2.1-4.8-3.1h.4c4 1.6 7.4 4 10 7.6zm5.1-10.9c3.2-3.5 7.9-4.9 12.6-5.8-1.6 2.5-4 4-7.1 4.5-1.2.2-2.3.3-3.4.5 1.5-.9 3-1.6 4.5-2.4.3-.2.1-.6-.2-.5-2.2.6-4.3 2-6 3.5-.2.1-.3.1-.4.2zm30.7 9c-5.1-.6-9.5-2.6-13.4-5.9.3 0 .6 0 .9.1.3 0 .5 0 .8.1.9.4 1.8.8 2.7 1.3.9.5 1.8 1.3 2.7 1.8.3.2.6-.2.4-.5-1.1-1.1-2.7-1.9-4.2-2.5.5 0 .9.1 1.4.1 3.5.9 6.4 2.7 8.7 5.5zm3.9-6.3c3.2-5.1 9.1-5.8 14.8-6.2-3.5 3.9-8.2 6.2-13.5 6.3-.5 0-.9-.1-1.3-.1zm35.3 14c-1.4 1.5-5.8-2-7-2.9-1.8-1.4-3.6-2.9-4.3-5 .1 0 .2 0 .3.1-.1.1-.2.4 0 .5 2.2 1.5 4.4 3.2 6.8 4.6.4.3.8-.4.4-.7-2.1-1.6-4.5-2.9-6.7-4.4.2 0 .4.1.7.1 2.6 1.3 11.7 5.7 9.8 7.7zm1.2-13.1c-2.1.7-4 1.9-5.6 3.4 1-4.3 6.1-5.4 10.3-5.7-.5.8-1 1.8-1.5 2.4-2 2.4-5.1 3.6-8.2 3.4 1.6-1.2 3.3-2.1 5.2-2.8.4-.1.3-.8-.2-.7zm21.1 9.1c-1.2.3-2.5.7-3.7.9-3.3.7-6.7 1.2-9.2-1.2l.1-.1c.5-.1.9-.3 1.3-.6-.2.2-.1.7.3.7 2.5.1 5.3 0 7.7-.9.4-.2.4-.8-.1-.8-2.5.2-5 .7-7.6.8h-.1c1.1-.6 2.2-1.3 3.5-1.6 2.7-.6 6.8-.1 9.1 1.4 1.8 1.4.2 1.1-1.3 1.4z" fill="#fff"/></svg>