<svg xmlns="http://www.w3.org/2000/svg" width="100" height="80"><g opacity=".3"><path d="M50.3 75.8c-.1 0-.2 0-.3-.1-.1-.1-.2-.2-.2-.4 0-.4-.3-10.3 4.9-18.4 3.8-5.9 11.9-11.1 16.8-14.3 1.7-1.1 3.1-2 3.5-2.4.1-.2.4-.2.6-.1.2.1.3.3.3.5 0 .1-2.1 9.8-2.7 15.5C72 68 65.6 73.5 50.3 75.8c.1 0 0 0 0 0zm24.4-34c-.6.5-1.5 1-2.6 1.7-4.8 3.1-12.8 8.2-16.5 14-4.3 6.8-4.7 15.1-4.7 17.2 14.2-2.2 20.3-7.5 21.4-18.7.4-4.4 1.8-11.3 2.4-14.2z"/><path d="M51.1 75.7l-.4-.9c11.4-4.6 17.5-11.6 19.3-22 1.1-6.4 4.9-12.2 5-12.4l.8.5c0 .1-3.8 5.8-4.9 12.1-1.8 10.7-8.1 17.9-19.8 22.7z"/><path d="M69.8 49.9c0 .5-.8.5-.8 0s.8-.5.8 0M68.6 51.7c0 .5-.8.5-.8 0s.8-.5.8 0M68.1 54.6c0 .5-.8.5-.8 0s.8-.5.8 0M65.9 56.3c0 .5-.8.5-.8 0 0-.6.8-.6.8 0M67.7 57.5c0 .5-.8.5-.8 0s.8-.5.8 0M65.6 58.2c0 .5-.8.5-.8 0s.8-.5.8 0M66.3 60.3c0 .5-.8.5-.8 0 0-.6.8-.6.8 0M62.6 64.7c0 .5-.8.5-.8 0 .1-.6.8-.6.8 0M60.4 66.3c0 .5-.8.5-.8 0s.8-.5.8 0M59 69.1c0 .5-.8.5-.8 0 0-.6.8-.6.8 0M57.1 68.8c0 .5-.8.5-.8 0 0-.6.8-.6.8 0M56.8 70.7c0 .5-.8.5-.8 0s.8-.5.8 0M54.9 70.4c0 .5-.8.5-.8 0s.8-.5.8 0M64.2 60.9c0 .5-.8.5-.8 0s.8-.5.8 0M64.6 62.1c0 .5-.8.5-.8 0s.8-.5.8 0M65 59.2c0 .5-.8.5-.8 0s.8-.5.8 0M63.6 63.2c0 .5-.8.5-.8 0 0-.6.8-.6.8 0M61.2 65.8c0 .5-.8.5-.8 0 0-.6.8-.6.8 0M60.9 67.7c0 .5-.8.5-.8 0s.8-.5.8 0M64.2 64.4c0 .5-.8.5-.8 0s.8-.5.8 0M62.9 66.2c0 .5-.8.5-.8 0s.8-.5.8 0M58.8 67.6c0 .5-.8.5-.8 0 0-.6.8-.6.8 0M72.3 66.5c-.9 0-1.7 0-2.6-.1l.1-1c13.7 1.5 19.9-9.2 21.2-15.1 1-4.4 4.3-10.5 5.8-13.2-.7.3-1.6.6-2.8 1-5.5 1.9-14.6 5-19.6 9.6l-.7-.7c5.2-4.8 14.4-7.9 20-9.8 2-.7 3.5-1.2 4-1.5.2-.1.4-.1.6.1.2.2.2.4.1.6-.1.1-5.2 8.7-6.5 14.2-1.3 5.7-7 15.9-19.6 15.9z"/><path d="M69.8 66.4l-.1-1C80.3 64 87.4 49.7 89.4 45.3c2.7-6 8.1-9.4 8.4-9.6l.5.8c-.1 0-5.5 3.4-8 9.1-2.6 5.8-9.7 19.3-20.5 20.8zM89.9 42.5c0 .5-.8.5-.8 0s.8-.5.8 0M88.4 44.2c0 .5-.8.5-.8 0s.8-.5.8 0"/><path d="M87.7 47c0 .5-.8.5-.8 0s.8-.5.8 0M85.3 48.4c0 .5-.8.5-.8 0s.8-.5.8 0M87 49.9c0 .5-.8.5-.8 0 0-.6.8-.6.8 0M84.8 50.3c0 .5-.8.5-.8 0s.8-.5.8 0M85.3 52.4c0 .5-.8.5-.8 0s.8-.5.8 0M81.2 56.4c0 .5-.8.5-.8 0s.8-.5.8 0M78.8 57.8c0 .5-.8.5-.8 0s.8-.5.8 0M77.1 60.4c0 .5-.8.5-.8 0s.8-.5.8 0M75.2 59.9c0 .5-.8.5-.8 0s.8-.5.8 0M74.7 61.8c0 .5-.8.5-.8 0 .1-.5.8-.5.8 0M83.1 52.9c0 .5-.8.5-.8 0s.8-.5.8 0M83.4 54.1c0 .5-.8.5-.8 0 0-.6.8-.6.8 0M84.1 51.2c0 .5-.8.5-.8 0s.8-.5.8 0M82.3 55c0 .5-.8.5-.8 0s.8-.5.8 0M79.7 57.4c0 .5-.8.5-.8 0s.8-.5.8 0M79.2 59.3c0 .5-.8.5-.8 0 0-.6.8-.6.8 0M82.7 56.4c0 .5-.8.5-.8 0 .1-.6.8-.6.8 0M81.3 58c0 .5-.8.5-.8 0s.8-.5.8 0M77 58.9c0 .5-.8.5-.8 0s.8-.5.8 0M78 44.9l-.4-.6c6.6-4.6 8.9-8.2 9.5-15 .4-5 3.1-12.3 4.3-15.4-.8.4-1.8.9-3.1 1.6-5.8 2.9-15.5 7.8-20.2 13.6 0 0 0 .1-.1.1 0 0-2.2 1.9-2.6 6.9l-1-.1c.5-5.1 2.6-7.2 3-7.5 4.9-6 14.6-10.9 20.5-13.8 2.1-1 3.7-1.9 4.2-2.3.2-.1.4-.2.6 0 .2.1.3.4.2.6 0 .1-4.3 10.3-4.8 16.5-.6 7-3.2 10.6-10.1 15.4z"/><path d="M75.7 41l-.6-.8c7.2-5.5 8.6-9.7 10.6-16.7 1.9-6.9 6.2-11 6.4-11.1l.7.7s-4.2 4-6.1 10.7c-2 7-3.6 11.6-11 17.2zM85 21c0 .6-.9.6-.9 0s.9-.6.9 0M83.4 22.8c0 .6-.9.6-.9 0s.9-.6.9 0M82.7 25.9c0 .6-.9.6-.9 0 0-.5.9-.5.9 0M80.1 27.5c0 .6-.9.6-.9 0s.9-.6.9 0"/><path d="M81.9 29.1c0 .6-.9.6-.9 0s.9-.6.9 0M79.6 29.6c0 .6-.9.6-.9 0s.9-.6.9 0M80.1 32c0 .6-.9.6-.9 0s.9-.6.9 0M75.7 36.4c0 .6-.9.6-.9 0 .1-.5.9-.5.9 0M73.1 38c0 .6-.9.6-.9 0 .1-.5.9-.5.9 0M71.3 40.9c0 .6-.9.6-.9 0s.9-.6.9 0M69.2 40.4c0 .6-.9.6-.9 0 .1-.6.9-.6.9 0M68.7 42.5c0 .6-.9.6-.9 0s.9-.6.9 0M77.8 32.5c0 .6-.9.6-.9 0s.9-.6.9 0M78.1 33.8c0 .6-.9.6-.9 0s.9-.6.9 0M78.8 30.7c0 .6-.9.6-.9 0 .1-.6.9-.6.9 0M76.9 34.9c0 .6-.9.6-.9 0s.9-.6.9 0M74.1 37.5c0 .6-.9.6-.9 0s.9-.6.9 0M73.6 39.6c0 .6-.9.6-.9 0s.9-.6.9 0M77.4 36.3c0 .6-.9.6-.9 0 .1-.6.9-.6.9 0M75.9 38.2c0 .6-.9.6-.9 0s.9-.6.9 0M71.2 39.3c0 .6-.9.6-.9 0s.9-.6.9 0M66 79.5c-5.3 0-10.7-1.1-15.4-3.8l.5-.8c11.5 6.7 29.5 2.9 36.8-2.6 5.4-4.1 8.6-7.8 9.9-9.4-.5 0-1.1-.1-1.8-.2-2.8-.3-7-.8-13.4.9l-.3-.9c6.6-1.8 10.9-1.3 13.7-1 1.1.1 2 .2 2.6.1.2 0 .4.1.5.2.1.2.1.4 0 .5-.1.2-3.4 5-10.7 10.4-4.1 3.3-13.1 6.6-22.4 6.6z"/><path d="M63.5 77c-3.4 0-7.4-.9-10.4-1.7l1.1-.5c9.5 2.8 22.5.8 30.8-4.8 6.5-4.3 13.5-8 13.6-8l.5.9c-.1 0-7.1 3.7-13.5 8-6 3.9-14.3 6.1-22.1 6.1z"/><path d="M91.3 64.8c0 .5-.8.5-.8 0s.8-.5.8 0M88.2 66.5c0 .5-.8.5-.8 0 .1-.5.8-.5.8 0M85.2 67.6c0 .5-.8.5-.8 0s.8-.5.8 0M82.5 67.7c0 .5-.8.5-.8 0s.8-.5.8 0M83.2 69.7c0 .5-.8.5-.8 0s.8-.5.8 0M81.1 69.1c0 .5-.8.5-.8 0s.8-.5.8 0M80.5 71.2c0 .5-.8.5-.8 0s.8-.5.8 0M75 72.7c0 .5-.8.5-.8 0 0-.6.8-.6.8 0M72.2 72.7c0 .5-.8.5-.8 0s.8-.5.8 0M69.5 74.2c0 .5-.8.5-.8 0 0-.6.8-.6.8 0M68.1 72.8c0 .5-.8.5-.8 0s.8-.5.8 0M66.7 74.2c0 .5-.8.5-.8 0s.8-.5.8 0M78.4 70.5c0 .5-.8.5-.8 0s.8-.5.8 0M78 71.7c0 .5-.8.5-.8 0s.8-.5.8 0M80.1 69.6c0 .5-.8.5-.8 0s.8-.6.8 0M76.6 72c0 .5-.8.5-.8 0s.8-.5.8 0M73.2 72.8c0 .5-.8.5-.8 0 0-.6.8-.6.8 0M71.8 74.2c0 .5-.8.5-.8 0 0-.6.8-.6.8 0M76.4 73.4c0 .5-.8.5-.8 0 0-.6.8-.6.8 0M74.3 74.1c0 .5-.8.5-.8 0s.8-.5.8 0M70.1 72.8c0 .5-.8.5-.8 0s.8-.5.8 0M54 58.7c-.3-.7-7.9-16.2-2.6-26 1.4-2.5 3.4-5.6 5.2-8.3 2-3 4.3-6.5 4.3-7.3V17c0-.3.2-.5.5-.5s.5.2.5.5v.1c0 .5.2 5.4 1.3 8.3v.1C67 35.8 66.1 44.8 60.5 52l-.8-.6c5.3-7 6.2-15.6 2.5-25.6v-.1c-.7-1.9-1-4.5-1.2-6.4-.8 1.4-2 3.3-3.6 5.7-1.8 2.7-3.8 5.7-5.1 8.2-5.1 9.4 2.5 24.9 2.6 25.1l-.9.4z"/><path d="M54.9 58.7l-.9-.4C58.6 48 60.4 39.9 59.6 33c-.8-7 1.2-15.7 1.3-16.1l1 .2c0 .1-2 8.9-1.3 15.8.8 7.1-1 15.3-5.7 25.8zM58.2 26.1c0 .5-.8.5-.8 0s.8-.5.8 0M57.8 28.3c0 .5-.8.5-.8 0s.8-.6.8 0"/><path d="M58.6 31c0 .5-.8.5-.8 0 .1-.5.8-.5.8 0M57.3 33.4c0 .5-.8.5-.8 0 .1-.5.8-.5.8 0M59.4 33.8c0 .5-.8.5-.8 0 .1-.5.8-.5.8 0M57.9 35.3c0 .5-.8.5-.8 0s.8-.5.8 0M59.3 36.9c0 .5-.8.5-.8 0 .1-.6.8-.6.8 0M57.9 42.3c0 .5-.8.5-.8 0s.8-.5.8 0M56.6 44.7c0 .5-.8.5-.8 0s.8-.5.8 0M56.5 47.7c0 .5-.8.5-.8 0s.8-.5.8 0M54.7 48.3c0 .5-.8.5-.8 0s.8-.6.8 0M55.2 50.1c0 .5-.8.5-.8 0s.8-.5.8 0M57.8 38.3c0 .5-.8.5-.8 0s.8-.5.8 0M58.6 39.2c0 .5-.8.5-.8 0s.8-.5.8 0M57.8 36.4c0 .5-.8.5-.8 0s.8-.5.8 0M58.2 40.6c0 .5-.8.5-.8 0 0-.6.8-.6.8 0M57.1 43.9c0 .5-.8.5-.8 0 0-.6.8-.6.8 0M57.7 45.7c0 .5-.8.5-.8 0s.8-.5.8 0M59.2 41.4c0 .5-.8.5-.8 0s.8-.5.8 0M58.8 43.6c0 .5-.8.5-.8 0 0-.6.8-.6.8 0M55.7 46.5c0 .5-.8.5-.8 0s.8-.5.8 0M50.3 75.8c-13.4-2-23-10.1-23.4-19.6-.3-8.1-2.6-15.3-2.7-15.4-.1-.2 0-.5.2-.6.2-.1.4-.1.6.1.4.4 1.8 1.3 3.5 2.4 4.9 3.1 13 8.3 16.8 14.3 5.1 8.1 5.4 17.9 5.4 18.3 0 .1-.1.3-.2.4 0 0-.1.1-.2.1zM25.6 41.9c.7 2.6 2 8.1 2.3 14.2.3 9 9.3 16.6 21.9 18.6-.1-2.2-.9-10.5-5.2-17.2-3.7-5.7-11.7-10.9-16.5-14-1-.6-1.8-1.2-2.5-1.6z"/><path d="M46.7 75.1c-9.6-4-15.7-16.2-16.9-23.3-1-6.2-5.4-10.8-5.4-10.9l.7-.7c.2.2 4.6 4.9 5.7 11.4 1.1 6.9 7.1 18.7 16.3 22.5l-.4 1z"/><path d="M31.9 50.1c0 .5-.8.5-.8 0s.8-.5.8 0M33.2 51.8c0 .5-.8.5-.8 0s.8-.5.8 0M33.7 54.7c0 .5-.8.5-.8 0s.8-.5.8 0M36 56.3c0 .5-.8.5-.8 0s.8-.5.8 0M34.2 57.6c0 .5-.8.5-.8 0s.8-.5.8 0M36.3 58.3c0 .5-.8.5-.8 0 0-.6.8-.6.8 0M35.7 60.3c0 .5-.8.5-.8 0s.8-.5.8 0M39.4 64.7c0 .5-.8.5-.8 0 0-.6.8-.6.8 0M41.6 66.3c0 .5-.8.5-.8 0 0-.6.8-.6.8 0M43.1 69c0 .5-.8.5-.8 0s.8-.5.8 0M45 68.7c0 .5-.8.5-.8 0 0-.6.8-.6.8 0M45.4 70.6c0 .5-.8.5-.8 0s.8-.5.8 0M47.3 70.3c0 .5-.8.5-.8 0 0-.6.8-.6.8 0M37.8 61c0 .5-.8.5-.8 0s.8-.5.8 0M37.4 62.1c0 .5-.8.5-.8 0s.8-.5.8 0M36.9 59.3c0 .5-.8.5-.8 0 0-.6.8-.6.8 0M38.4 63.2c0 .5-.8.5-.8 0s.8-.5.8 0M40.8 65.7c0 .5-.8.5-.8 0s.8-.5.8 0M41.1 67.7c0 .5-.8.5-.8 0s.8-.6.8 0M37.8 64.5c0 .5-.8.5-.8 0 0-.6.8-.6.8 0M39.1 66.2c0 .5-.8.5-.8 0s.8-.5.8 0M43.3 67.5c0 .5-.8.5-.8 0s.8-.5.8 0M28.2 66c-12 0-18.5-8.9-20-15.4-1.3-5.5-6.4-14.1-6.5-14.2-.1-.2-.1-.4.1-.6.2-.2.4-.2.6-.1.5.3 2.1.8 4.1 1.5 5.6 1.9 15.1 5 20.2 9.8l-.7.7c-5-4.6-14.3-7.7-19.9-9.6-1.2-.4-2.1-.7-2.9-1C4.7 39.7 8 45.9 9 50.3c1.5 6.6 8.5 15.9 21.7 14.5l.1 1c-.8.1-1.7.2-2.6.2z"/><path d="M30.2 65.2c-11.9-1.6-19-16.5-20.3-19.5-2.5-5.7-7.9-9.1-8-9.1l.5-.8c.2.1 5.7 3.6 8.4 9.6 1.3 2.9 8.2 17.4 19.6 18.9l-.2.9zM11.1 42.5c0 .5-.8.5-.8 0s.8-.5.8 0"/><path d="M12.5 44.2c0 .5-.8.5-.8 0s.8-.5.8 0M13.3 47c0 .5-.8.5-.8 0s.8-.5.8 0M15.6 48.4c0 .5-.8.5-.8 0s.8-.5.8 0M14 49.9c0 .5-.8.5-.8 0 0-.6.8-.6.8 0M16.1 50.3c0 .5-.8.5-.8 0s.8-.5.8 0M15.7 52.4c0 .5-.8.5-.8 0s.8-.5.8 0M19.7 56.4c0 .5-.8.5-.8 0 .1-.5.8-.5.8 0M22.1 57.8c0 .5-.8.5-.8 0s.8-.5.8 0M23.8 60.4c0 .5-.8.5-.8 0s.8-.5.8 0M25.7 59.9c0 .5-.8.5-.8 0s.8-.5.8 0M26.2 61.8c0 .5-.8.5-.8 0s.8-.5.8 0M17.8 52.9c0 .5-.8.5-.8 0s.8-.5.8 0M17.6 54.1c0 .5-.8.5-.8 0 0-.6.8-.6.8 0M16.8 51.2c0 .5-.8.5-.8 0s.8-.5.8 0M18.6 55c0 .5-.8.5-.8 0s.8-.5.8 0M21.3 57.4c0 .5-.8.5-.8 0s.8-.5.8 0M21.8 59.3c0 .5-.8.5-.8 0 0-.6.8-.6.8 0M18.2 56.4c0 .5-.8.5-.8 0 0-.6.8-.6.8 0M19.6 58c0 .5-.8.5-.8 0s.8-.5.8 0M23.9 58.9c0 .5-.8.5-.8 0s.8-.5.8 0M22.2 44.9c-6.9-4.8-9.5-8.4-10.1-15.5-.5-6.2-4.7-16.4-4.8-16.5-.1-.2 0-.5.2-.6.2-.1.4-.1.6 0 .5.4 2.1 1.2 4.2 2.3 5.9 2.9 15.6 7.9 20.5 13.9.1.1 2.4 2.5 2.9 7.9l-.7.1c-.5-5.1-2.9-7.3-2.9-7.3-4.8-5.9-14.4-10.8-20.2-13.7-1.3-.6-2.3-1.2-3.1-1.6 1.2 3 3.9 10.4 4.3 15.4.6 6.7 3 10.2 9.6 14.8l-.5.8z"/><path d="M24.9 41.6c-7.5-5.7-9.4-11-11.3-17.9C11.7 17 7.5 13.1 7.5 13l.7-.7c.2.2 4.4 4.2 6.4 11.1 1.9 6.6 3.2 11.1 10.6 16.8l-.3 1.4zM16.1 21c0 .6-.9.6-.9 0s.9-.6.9 0M17.6 22.8c0 .6-.9.6-.9 0s.9-.6.9 0M18.4 25.9c0 .6-.9.6-.9 0 0-.5.9-.5.9 0M20.9 27.5c0 .6-.9.6-.9 0 .1-.6.9-.6.9 0"/><path d="M19.1 29.1c0 .6-.9.6-.9 0s.9-.6.9 0M21.5 29.6c0 .6-.9.6-.9 0s.9-.6.9 0M20.9 32c0 .6-.9.6-.9 0s.9-.6.9 0M25.3 36.4c0 .6-.9.6-.9 0 0-.5.9-.5.9 0M27.9 38c0 .6-.9.6-.9 0 0-.5.9-.5.9 0M29.7 40.9c0 .6-.9.6-.9 0s.9-.6.9 0M31.8 40.4c0 .6-.9.6-.9 0s.9-.6.9 0M32.3 42.5c0 .6-.9.6-.9 0s.9-.6.9 0M23.2 32.5c0 .6-.9.6-.9 0 .1-.6.9-.6.9 0M22.9 33.8c0 .6-.9.6-.9 0s.9-.6.9 0M22.2 30.7c0 .6-.9.6-.9 0s.9-.6.9 0M24.1 34.9c0 .6-.9.6-.9 0s.9-.6.9 0M26.9 37.5c0 .6-.9.6-.9 0 .1-.6.9-.6.9 0M27.4 39.6c0 .6-.9.6-.9 0 .1-.6.9-.6.9 0M23.6 36.3c0 .6-.9.6-.9 0s.9-.6.9 0M25.1 38.2c0 .6-.9.6-.9 0 .1-.6.9-.6.9 0M29.8 39.3c0 .6-.9.6-.9 0 .1-.6.9-.6.9 0M30.3 78.4c-1.6 0-3-.1-4.3-.3-5.4-.7-10.7-2.7-13.5-5.2C5.7 66.9 1 62.8 1 62.8c-.2-.1-.2-.4-.1-.6.1-.2.3-.3.5-.3.6.1 1.6 0 2.8-.1 3.2-.3 8-.7 14.6 1.1l.2.7c-6.4-1.8-11.6-1.1-14.7-.8-.6.1-1.1.1-1.6.1 1.7 1.5 5.5 4.9 10.5 9.3 4.8 4.3 19.4 8.5 31.3 1.6l1 .6c-5.2 3-10.9 4-15.2 4z"/><path d="M34.8 75.9c-7.3 0-14.7-2-20.2-5.6C8.2 66 1.2 62.9 1.1 62.8l.4-.9c.1 0 7.1 3.2 13.6 7.5 8 5.4 20.1 7 30.1 4l.3.9c-3.4 1.1-7.1 1.6-10.7 1.6z"/><path d="M9.7 64.8c0 .5-.8.5-.8 0s.8-.5.8 0M12.7 66.5c0 .5-.8.5-.8 0s.8-.5.8 0M15.7 67.6c0 .5-.8.5-.8 0s.8-.5.8 0M18.5 67.7c0 .5-.8.5-.8 0s.8-.5.8 0M17.7 69.7c0 .5-.8.5-.8 0s.8-.5.8 0M19.8 69.1c0 .5-.8.5-.8 0s.8-.5.8 0M20.5 71.2c0 .5-.8.5-.8 0s.8-.5.8 0M26 72.7c0 .5-.8.5-.8 0 0-.6.8-.6.8 0M28.7 72.7c0 .5-.8.5-.8 0s.8-.5.8 0M31.5 74.2c0 .5-.8.5-.8 0 0-.6.8-.6.8 0M32.9 72.8c0 .5-.8.5-.8 0s.8-.5.8 0M34.2 74.2c0 .5-.8.5-.8 0s.8-.5.8 0M22.6 70.5c0 .5-.8.5-.8 0s.8-.5.8 0M22.9 71.7c0 .5-.8.5-.8 0s.8-.5.8 0M20.9 69.6c0 .5-.8.5-.8 0s.8-.6.8 0M24.3 72c0 .5-.8.5-.8 0s.8-.5.8 0M27.8 72.8c0 .5-.8.5-.8 0 0-.6.8-.6.8 0M29.1 74.2c0 .5-.8.5-.8 0 0-.6.8-.6.8 0M24.6 73.4c0 .5-.8.5-.8 0 0-.6.8-.6.8 0M26.6 74.1c0 .5-.8.5-.8 0 .1-.5.8-.5.8 0M30.8 72.8c0 .5-.8.5-.8 0s.8-.5.8 0M40 51.9c-5.5-7.3-6.7-16.1-3-26.4v-.1c1-2.9 1.3-7.8 1.3-8.3V17c0-.3.2-.5.5-.5s.5.2.5.5v.1c0 1.5 5.2 9.2 8.3 13.9l1.1 1.7c1.8 2.6 2.1 12 2.1 12.4h-1c0-.1-.3-9.5-1.9-11.9l-1.1-1.7c-3.4-5.1-6.3-9.5-7.7-12.2-.2 1.9-.5 4.4-1.2 6.3v.1c-3.6 10-2.8 18.6 2.5 25.6l-.4.6z"/><path d="M45.5 58.6c-4.7-10.5-6.7-18.6-5.9-25.7.8-6.9-1.2-15.7-1.3-15.8l1-.2c.1.4 2.1 9 1.3 16.1-.8 6.9 1 15 5.6 25.3l-.7.3zM42.7 26.1c0 .5-.8.5-.8 0 .1-.5.8-.5.8 0M43.1 28.3c0 .5-.8.5-.8 0s.8-.6.8 0"/><path d="M42.3 31c0 .5-.8.5-.8 0s.8-.5.8 0M43.6 33.4c0 .5-.8.5-.8 0s.8-.5.8 0M41.5 33.8c0 .5-.8.5-.8 0s.8-.5.8 0M43.1 35.3c0 .5-.8.5-.8 0s.8-.5.8 0M41.6 36.9c0 .5-.8.5-.8 0 0-.6.8-.6.8 0M43 42.3c0 .5-.8.5-.8 0s.8-.5.8 0M44.3 44.7c0 .5-.8.5-.8 0s.8-.5.8 0M44.4 47.7c0 .5-.8.5-.8 0s.8-.5.8 0M46.3 48.3c0 .5-.8.5-.8 0s.8-.6.8 0M45.7 50.1c0 .5-.8.5-.8 0s.8-.5.8 0M43.2 38.3c0 .5-.8.5-.8 0s.8-.5.8 0M42.4 39.2c0 .5-.8.5-.8 0s.8-.5.8 0M43.2 36.4c0 .5-.8.5-.8 0s.8-.5.8 0M42.8 40.6c0 .5-.8.5-.8 0 0-.6.8-.6.8 0M43.8 43.9c0 .5-.8.5-.8 0 0-.6.8-.6.8 0M43.3 45.7c0 .5-.8.5-.8 0s.8-.5.8 0M41.7 41.4c0 .5-.8.5-.8 0 .1-.5.8-.5.8 0M42.1 43.6c0 .5-.8.5-.8 0 0-.6.8-.6.8 0M45.3 46.5c0 .5-.8.5-.8 0s.8-.5.8 0M54.3 29.7l-1-.1c.9-5.6-5.7-14.3-8.8-17.4-2.3-2.3-3.5-5.8-4-7.7-.3.5-.8 1.1-1.3 1.7-1.6 2.2-4.1 5.5-5.5 9.8-2.2 6.7 2.9 12.7 2.9 12.8l-.6.6c-.2-.3-5.4-6.5-3.1-13.7 1.4-4.4 4-7.8 5.6-10.1.9-1.2 1.7-2.3 1.7-2.7 0-.3.2-.5.5-.5.2 0 .5.2.5.4 0 .1.9 5.5 4 8.6 3.3 3.3 10 12.3 9.1 18.3z"/><path d="M47.7 31.6l-.7-.7c2.5-6.8-.9-11.8-3.7-15.8-.5-.7-1-1.5-1.4-2.1C39 8.4 40.2 3 40.2 2.7l1 .2c0 .1-1.2 5.3 1.5 9.5.4.7.9 1.4 1.4 2.1 2.8 4.3 6.3 9.9 3.6 17.1zM38.4 10v1c1.1 0 1.1-1 0-1zM40.5 13.1c-1.1 0-1.1 1 0 1v-1z"/><path d="M42.6 16.2c-1.1 0-1.1 1 0 1v-1zM41.6 18.5v1c1 0 1-1 0-1zM43.7 21.7v1c1 0 1-1 0-1zM44.7 23.4c-1.1 0-1.1 1 0 1v-1zM45.8 25.5v1c1-.1 1-1 0-1zM73.2 24.2l-1-.2c1.3-5.3-1.7-12.4-3.8-14.5-1.6-1.6-2.8-5.4-3.3-7.4-1.2 1.6-4 3.5-9.1 6.2-6.2 3.3-6 9.1-6 9.4l-1 .1c0-.1-.3-6.6 6.5-10.3 6.1-3.3 9-5.4 9.2-6.9 0-.2.2-.4.5-.4.2 0 .4.2.5.4 0 .1 1.5 6.3 3.4 8.3 2.2 2.1 5.6 9.5 4.1 15.3z"/><path d="M64.6 30.9l-.8-.6c4.7-6.2 4.2-13.1 2.2-17.4-2.3-5-1.2-12-1.2-12.3l1 .1c0 .1-1 7 1.1 11.8 2.1 4.6 2.6 11.9-2.3 18.4zM62.6 5.3v1c1.1 0 1.1-1 0-1zM61.6 7.4v1c1 0 1-1 0-1zM62.6 10.8v1c1.1 0 1.1-1 0-1zM59.5 10.9v1c1 0 1-1 0-1z"/><path d="M64.7 12.9c-1.1 0-1.1 1 0 1v-1zM64.7 15.8v1c1.1 0 1.1-1 0-1zM62.6 15.8v1c1.1 0 1.1-1 0-1zM65.8 18.5v1c1 0 1-1 0-1zM64.7 20.3c-1.1 0-1.1 1 0 1v-1zM64.7 22.8v1c1.1-.1 1.1-1 0-1z"/></g></svg>