<svg xmlns="http://www.w3.org/2000/svg" width="1030" height="900"><path d="M508.4 555.4c12.1-18.2 28.3-46.6 31.4-67.9 3-13.2 0-46.6-18.3-46.6-33.5 1-79 66.8-93.2 95.2-18.2 36.5 18.3 50.7-14.1 83.1L378.7 608c-32.4-10.2-43.6-13.2-48.7-14.2 88.1-90.2 149.9-149.9 234-234 42.6 14.2 18.3 44.6 50.7 66.9 25.4 19.3 97.3 56.8 126.7 41.7 16.2-8.1 3-39.5-5.1-49.7-14.2-18.3-39.5-35.5-59.9-45.6-12.2-6.1-31.4-15.2-44.6-16.3-21.3-1-38.5 8.1-62.8-2.1l40.5-40.5c1 1 1 1 3 1 8.1 2 21.3 5.1 29.4 9.1 9.1 3 17.2 17.2 27.4 25.4 14.2 10.2 42.6 18.3 62.9 20.3 17.2 3 56.8 4.1 67.9-11.1 6.1-10.1 3-17.2-6.1-26.4-15.2-15.2-34.5-24.4-55.8-29.4-63.9-15.3-79.1 10.1-90.2 13.1-5.1 1-25.3-5.1-33.4-7.1l61.8-61.8c5.1 1 17.2 1 25.3 5.1 5.1 3.1 8.1 18.2 39.6 25.3 26.4 6.1 69.9-1 93.2-14.1 17.2-9.1 19.2-25.3 6-34.4-12.1-8.1-36.5-14.2-51.7-15.2-18.2-2-46.6 0-61.8 9.1-14.2 6.1-20.2 18.2-24.3 20.3-7.1 1-16.2 0-22.3 0l3-3c38.5-36.5 39.5-37.5 45.6-39.5 6.1-2 17.2-3 29.4-5 10.1-2 21.3-5.1 30.4-10.1 10.1-6.1 19.3-13.2 29.4-23.3 9.1-9.1 20.2-20.2 29.4-31.4 9.1-11.1 16.2-24.3 20.2-34.5 3-11.2 4-18.2 4-24.3-1-7.1-3.1-11.2-8.1-14.2-4.1-4.1-10.1-6.1-21.3-5.1-10.1 2-26.4 8.1-43.6 19.2-16.2 10.1-33.5 25.3-45.6 39.5-11.2 13.2-18.2 24.3-22.3 36.5-4 14.2-7.1 27.4-9.1 37.5-3 9.1-8.1 14.2-46.6 52.7 0-6.1 0-12.1 2-18.2 1-5.1 13.1-9.1 21.3-23.3 9.1-15.2 12.1-44.6 11.1-61.8-1-15.2-6.1-40.5-13.2-53.7-8.1-14.2-24.3-12.2-33.4 5-14.2 22.3-24.3 66.9-19.2 94.3 7.1 31.4 21.3 35.5 23.3 39.6 3.1 7.1 3 17.2 4.1 22.3-17.2 17.2-39.5 39.5-63.8 61.8 0-8.1-5.1-29.4-4.1-32.4 2-12.2 30.4-26.3 18.2-91.2-4.1-22.3-13.2-41.6-27.4-57.8-9.1-9.1-15.2-13.2-26.4-6.1-15.2 9.1-16.2 48.6-14.1 66.9 2 20.3 8.1 48.6 17.3 63.9 8.1 10.1 21.3 19.3 24.4 28.4 4.1 8.1 5.1 21.3 8.1 30.4-1 1 0 2-1 3L564.9 347c-12.2-24.3-3.1-41.6-4.1-64.9-1-11.1-11.2-31.4-17.3-43.6-10.1-20.3-27.4-45.6-45.6-57.8-11.1-9.1-42.6-22.3-49.7-5.1C434 206 472.6 277 491.9 302.3c23.3 31.4 52.7 6.1 67.9 49.7-37.5 37.5-159 157-236 236-2-4.1-4.1-14.2-14.2-48.7l-11.2-35.5c32.4-32.4 46.6 4.1 82.1-15.2 28.4-14.2 95.2-58.7 95.2-93.2 0-18.2-32.4-20.3-46.6-18.3-21.3 3-49.7 19.2-66.9 32.4-12.1 8.1-28.4 20.2-35.4 31.4-11.1 19.2-10.1 38.5-31.4 55.7l-16.3-54.7 2-2c5.1-7.1 13.2-17.2 21.3-23.3 7.1-5.1 23.3-7.1 34.4-12.1 16.2-8.1 35.5-29.4 47.6-45.6 11.2-15.2 30.4-48.6 22.3-64.9-6.1-12.2-14.2-12.2-26.4-8.1-21.3 7.1-37.5 19.2-52.7 36.5-42.5 48.6-26.3 75-29.4 86.1-2 4.1-16.2 20.2-22.3 26.3l-25.4-84.2c3-3 8.1-14.2 17.2-19.2 3-3 18.2 0 39.5-23.3 18.2-20.2 31.4-63.9 31.3-90.2-1-19.2-13.2-29.4-28.4-20.3-11.1 7.1-29.4 25.3-37.5 39.5-9.1 13.1-20.3 40.5-21.3 57.8 1 15.2 8.1 26.4 7.1 31.4-1 7.1-6.1 14.2-9.1 19.2l-1-5.1c-15.2-49.7-16.2-50.7-15.2-57.8 2-6.1 5.1-17.2 9.1-27.4 3-11.2 6.1-22.3 5-33.4 0-10.1-3.1-23.3-7.1-35.5-3.1-13.2-7.1-27.4-13.2-41.6-6.1-14.2-15.2-25.3-22.3-34.5-7.1-7.1-13.2-11.2-18.3-14.2-6.1-2-11.1-1-16.2 0-5.1 3-10.1 6.1-15.2 17.2-3 11.2-5.1 27.4-3 47.6 2 20.3 7.1 41.6 13.2 57.8 7.1 17.2 14.2 28.4 23.3 37.5 9.1 11.1 21.3 19.3 28.4 26.4 7.1 7.1 8.1 12.1 24.4 64.9-5.1-3.1-10.1-6.1-14.2-10.2-3.1-3.1-4.1-16.2-11.2-29.4-9.1-15.2-33.5-31.4-48.7-38.6-14.2-6.1-39.5-13.2-53.7-13.2-17.2 1-22.3 16.2-12.2 32.4 13.2 23.3 47.7 51.7 74 59.8 31.4 9.1 41.5-1 46.6-2 8.1 0 16.2 4.1 21.3 7.1 7.1 23.3 16.3 52.7 25.4 84.2-8.1-4.1-28.4-8.1-31.4-11.2-9.1-7.1-9.1-37.5-72-57.8-20.3-6.1-42.6-8.1-62.8-2.1-13.2 3-19.2 7.1-18.2 20.2 1 17.2 36.5 36.5 53.7 43.6 18.2 8.1 45.6 15.3 63.9 13.2 12.2-2 27.4-9.1 36.5-8.1 9.1 1 21.3 5.1 30.4 8.1 1 1 1 1 3 1 5.1 17.2 10.1 34.5 15.2 51.7-27.4-1-38.5-18.3-58.8-26.4-12.2-4.1-33.4-5.1-47.7-5.1-22.3 0-53.7 3-73 14.1-12.2 6.1-37.5 27.3-27.3 41.6 21.3 27.4 101.4 24.4 132.8 19.3 38.5-6 29.3-43.6 75-36.4l14.2 44.6c9.1 29.4 13.2 41.6 14.2 46.7L255 656.7l8.1 8.1c21.3-23.3 42.6-44.6 60.8-64.8 5.1 3.1 17.2 7.1 44.6 14.2l44.6 14.2c7.1 45.6-30.4 36.5-36.4 75-5 31.4-7 112.5 19.3 132.8 15.2 11.2 35.5-15.2 42.6-26.3 10.1-20.2 13.1-51.7 13.1-74 0-14.2 0-34.5-4.1-46.6-9.1-21.3-25.3-31.4-26.4-58.8 16.2 4.1 33.5 9.1 51.7 15.2-1 1 0 2 1 3 2 8.1 6.1 20.3 7.1 29.4 1 9.1-6.1 24.3-8.1 36.5-2 18.2 6.1 46.6 14.2 64.9 6.1 16.2 25.4 51.7 43.6 53.7 12.1 0 16.2-6.1 19.2-19.2 6.1-20.3 5-41.5-2.1-62.8-19.3-61.8-50.7-62.9-57.8-72-3.1-3.1-7.1-23.3-11.2-31.4 31.4 9.1 61.8 19.3 84.2 25.4 3.1 5.1 7.1 13.2 7.1 21.3 0 6.1-10.1 16.2-2 46.6 8.1 26.4 36.5 60.9 59.8 74 17.2 11.1 31.4 5.1 32.4-12.2 0-14.2-6.1-38.5-12.2-52.7-8.1-16.2-24.3-40.6-38.6-48.7-14.2-8.1-26.4-8.1-30.4-12.2-4.1-4.1-7.1-9.1-10.2-14.2 52.7 16.3 58.8 18.3 65.9 25.4 7.1 7.1 15.2 19.3 25.4 27.4 10.1 10.1 21.3 17.3 37.5 23.3 16.2 6.1 38.5 12.2 57.8 13.2 20.3 2 37.5 1 47.6-3 11.2-5.1 15.2-9.1 17.2-15.2 2-4.1 2-10.1 1-15.2-3.1-5.1-7.1-11.1-15.2-19.3-9.1-7.1-20.3-16.2-34.5-22.3-13.2-5.1-28.4-10.1-41.6-13.2-12.2-4.1-24.3-6.1-35.5-7.1-11.1-1-22.3 2-32.4 6-11.2 3-22.3 6.1-28.4 8.1-6.1 2-7.1 1-57.8-15.2h-4c5.1-3 12.1-8.1 19.2-9.1 4.1-2 15.2 5.1 30.4 6.1 18.2 0 44.6-12.1 58.8-20.2 13.1-9.1 32.4-26.3 38.5-38.5 9.1-15.2-1-27.4-19.3-27.4-27.4-1-69.9 13.1-91.2 30.3-23.3 21.3-20.2 36.5-22.3 40.5-6.1 8.1-17.2 13.2-20.2 16.2l-84.2-25.4c7.1-5.1 22.3-20.3 26.3-22.3 11.2-3 37.5 13.2 86.1-29.4 17.2-15.2 29.4-31.4 36.5-52.7 4-12.2 4-20.3-7.1-25.4-16.2-8.1-50.7 10.1-65.9 21.3-16.2 12.2-37.5 31.4-45.6 47.6-5.1 11.2-7.1 27.4-12.1 34.4-6.1 8.1-16.2 16.2-22.3 22.3-2 0-3 1-3 1L419.8 621c18.2-20.2 36.5-20.2 55.7-31.4 11.6-6.9 23.8-23.1 32.9-34.2z" fill="#e9ccbb" opacity=".2"/></svg>