<svg width="15" height="40" xmlns="http://www.w3.org/2000/svg"><path d="M2.081 14.772c.223-2.338 1.207-4.3 2.162-6.193C5.556 5.965 6.793 3.493 5.58.663a.748.748 0 1 0-1.377.591c.938 2.192-.047 4.16-1.295 6.657C1.94 9.838.851 12.024.6 14.637c-.346 3.621 1.71 6.035 3.527 8.162.89 1.05 1.734 2.033 2.162 3.035 3.17 7.383-1.945 12.557-2.162 12.774a.75.75 0 0 0 .527 1.283.757.757 0 0 0 .522-.217c.058-.058 6.07-6.094 2.484-14.437-.521-1.213-1.435-2.28-2.402-3.416-1.705-1.992-3.463-4.055-3.176-7.049zm11.713 18.603a.75.75 0 0 0 .715-.527c1.312-4.143-1.618-8.777-3.967-12.498-.709-1.131-1.383-2.198-1.805-3.059-2.455-5.01.463-8.889.592-9.053a.747.747 0 0 0-.135-1.048.742.742 0 0 0-1.049.128C8 7.512 4.518 12.082 7.39 17.953c.457.938 1.154 2.033 1.886 3.2 2.186 3.456 4.905 7.763 3.809 11.243a.743.743 0 0 0 .709.979z" fill="#FFF" fill-rule="nonzero"/></svg>